<?xml version="1.0" encoding="UTF-8" standalone="no"?><svg xmlns="http://www.w3.org/2000/svg" xmlns:xlink="http://www.w3.org/1999/xlink"><symbol viewBox="0 0 166.8 79.113876" id="accept-logo"><style id="aastyle3">.aast0{fill-rule:evenodd;clip-rule:evenodd}.aast0,.aast1{fill:#fff}</style><path d="M160.1 51.46l3.6-1.2c2.3-.8 3.1.3 3.1 2.6v14.1c0 2-.9 2.9-2.7 3.5l-23.8 8.6c-.8.3-1.5-.7-1.5-1.6v-8.4l18.6-6.7c1.8-.7 2.7-1.5 2.7-3.5v-7.4z" class="aast0" id="aaXMLID_61_" clip-rule="evenodd" fill="#fff" fill-rule="evenodd"/><path d="M3.3 7.46L25 .26c2.3-.8 3.1.3 3.1 2.6v6.7l-18.1 6c-1.9.6-3.3 1.2-3.3 3.5v8.1l-5.2 1.9c-.8.3-1.5-.7-1.5-1.6v-16.5c0-2.3 1.4-2.9 3.3-3.5z" class="aast0" id="aaXMLID_60_" clip-rule="evenodd" fill="#fff" fill-rule="evenodd"/><g transform="translate(-.6 -.24)" id="aaXMLID_3_"><path d="M27.2 27.6c-4.4 0-8.4 1.4-8.6 1.4l-.5.2v6.4l1-.3S23 34 26.2 34c2.1 0 2.5.3 2.5 1.8v.9h-3.3c-6 0-9.4 3-9.4 8.2 0 7.1 4.6 8.2 7.3 8.2 2.8 0 4.8-1.1 5.9-1.9l.5 1.5h6.6V35.8c0-7.3-4.9-8.2-9.1-8.2zm1.5 14v4.6c-.6.3-1.8.8-3.1.8-1.2 0-1.9-.4-1.9-2.3 0-2.2.6-3 4.1-3.1h.9z" class="aast1" id="aaXMLID_119_" fill="#fff"/><path d="M51.1 34c1.1 0 3.6.7 4.4.9l1.3.4v-6.6l-.6-.3c-.1 0-2.2-1.1-5.3-1.1-7.7 0-11.7 4.5-11.7 13 0 12.8 8.1 12.8 11.1 12.8 2.9 0 5.7-1 5.8-1.1l.7-.2V45l-1.3.4s-3.1 1-4.8 1c-1.6 0-3.5 0-3.5-6 .1-6.4 2.3-6.4 3.9-6.4z" class="aast1" id="aaXMLID_113_" fill="#fff"/><path d="M146.8 45.6c-1.3.3-3.3.8-3.9.8h-.3V34h4.5l.9-6.3h-5.4v-7.4l-7.8 2.6-.4 4.8h-4V34h3.9v12.1c0 7.4 5.6 7.4 7.4 7.4 3 0 5.7-1 5.9-1.1l.7-.3v-6.8l-1.5.3z" class="aast1" id="aaXMLID_95_" fill="#fff"/><g id="aaXMLID_74_"><path d="M105.4 64.5l8.3-3.1V49.8h.1c1 1.5 3 2.7 5.6 2.7 4.8 0 9.8-4 9.8-12.6 0-7.5-4.3-12-9-12-3.1 0-5.6 1.3-7.2 3.8h-.1l-.3-3.3h-7.4c.5 10.9.2 25.2.2 36.1zm8.2-26.2c0-.5 0-1.2.1-1.6.4-2.7 1.7-3 3.2-3 2.4 0 3.6 1.9 3.6 6.7 0 5.1-1.4 6.7-3.7 6.7-1.6 0-2.8-.2-3.1-2.7-.1-.6-.1-1.2-.1-2v-4.1z" class="aast0" id="aaXMLID_76_" clip-rule="evenodd" fill="#fff" fill-rule="evenodd"/></g><path d="M102 40.5c.1-4.7-.9-8.1-3.1-10.4-1.8-1.8-4.2-2.7-7.3-2.7-4 0-10.8 1.7-10.8 13.1 0 11.7 6.7 13.1 11.7 13.1 3.9 0 7.4-1.2 7.5-1.3l.5-.2v-6.6l-1 .3s-4 1.2-7 1.2c-1.6 0-3.5-.4-3.9-3.6H102v-2.9zm-13.4-2.7c.2-4.3 1.4-4.7 3-4.7 1.1 0 2.4 0 2.6 4.7h-5.6z" class="aast1" id="aaXMLID_69_" fill="#fff"/><path d="M71.8 34.2c1.1 0 3.6.7 4.4.9l1.3.4v-6.6l-.5-.3c-.1 0-2.2-1.1-5.3-1.1C64 27.5 60 32 60 40.5c0 12.8 8.1 12.8 11.1 12.8 2.9 0 5.7-1 5.8-1.1l.7-.2v-6.9l-1.3.4s-3.1 1-4.8 1c-1.6 0-3.5 0-3.5-6 0-6.3 2.2-6.3 3.8-6.3z" class="aast1" id="aaXMLID_86_" fill="#fff"/></g></symbol><symbol viewBox="0 0 25 25" id="arrow-forward"><path fill="#52c0a7" d="M12.5.5l-2.1 2.1 8.3 8.4H.5v3h18.2l-8.3 8.4 2.1 2.1 12-12-12-12z"/></symbol><symbol viewBox="0 0 120 126" id="card-reader"><path fill="currentColor" d="M39.1 121.6c-2.6 0-4.8-2.2-4.8-4.8v-10.7h3v12.5h45.4v-12.5h2.9v10.7c0 2.6-2.2 4.8-4.8 4.8H39.1zm35.2-6.2c-.5 0-1-.4-1-.7v-8.6h1.9v8.6c.1.4-.4.7-.9.7zm-49.3-13v-98h70v98H25zm4-4h62v-90H29v90zm43.1-12.7v-3.6h9.1v3.6h-9.1zm-16.6 0v-3.6h9.1v3.6h-9.1zm-16.7 0v-3.6h9.1v3.6h-9.1zm33.3-11.1V71h9.1v3.6h-9.1zm-16.6 0V71h9.1v3.6h-9.1zm-16.7 0V71h9.1v3.6h-9.1zm0-11V60h9.1v3.6h-9.1zm33.3-.1v-3.6h9.1v3.6h-9.1zm-16.6 0v-3.6h9.1v3.6h-9.1zM36.1 52.4V18.3h47.8v34.1H36.1zm3.5-3.6h40.8v-27H39.6v27z"/></symbol><symbol viewBox="0 0 120 126" id="devices"><path fill="currentColor" d="M50.9 39.4H16.8C10.3 39.4 5 44.7 5 51.2V110c0 6.5 5.3 11.8 11.8 11.8h34.1c6.5 0 11.8-5.3 11.8-11.8V51.2c0-6.5-5.3-11.8-11.8-11.8zm-34.1 3.5h34.1c2.8 0 5.3 1.4 6.8 3.6H10c1.4-2.2 4-3.6 6.8-3.6zm42.4 8.3V110c0 .4 0 .8-.1 1.1H8.6c-.1-.4-.1-.8-.1-1.1V51.2c0-.4 0-.8.1-1.1h50.5c.1.3.1.7.1 1.1zm-8.3 67H16.8c-2.8 0-5.3-1.4-6.8-3.6h47.8c-1.5 2.2-4.1 3.6-6.9 3.6zm52.3-114H47c-6.5 0-11.8 5.3-11.8 11.8v18.7h3.5v-17h72.8v87.4H68v3.5h43.3c-.8 3.7-4.1 6.5-8.1 6.5H68v3.5h35.2c6.5 0 11.8-5.3 11.8-11.8V16c0-6.5-5.3-11.8-11.8-11.8zM38.9 14.3c.8-3.7 4.1-6.5 8.1-6.5h56.2c4 0 7.3 2.8 8.1 6.5H38.9z"/></symbol><symbol viewBox="0 0 178.8 79.067841" id="engage-logo"><style id="aestyle3">.aest0{fill-rule:evenodd;clip-rule:evenodd}.aest0,.aest1{fill:#fff}</style><g transform="translate(-.9 -1.586)" id="aeXMLID_5_"><path d="M173 53l3.6-1.2c2.3-.8 3.1.3 3.1 2.6v14.1c0 2-.9 2.9-2.7 3.5l-23.8 8.6c-.8.3-1.5-.7-1.5-1.6v-8.4l18.6-6.7c1.8-.7 2.7-1.5 2.7-3.5V53z" class="aest0" id="aeXMLID_134_" clip-rule="evenodd" fill="#fff" fill-rule="evenodd"/><path d="M4.2 9.1l21.7-7.2c2.3-.9 3.1.2 3.1 2.5v6.7l-18.1 6c-1.9.6-3.3 1.2-3.3 3.5v8.1l-5.2 1.9c-.8.3-1.5-.7-1.5-1.6V12.5c0-2.2 1.4-2.8 3.3-3.4z" class="aest0" id="aeXMLID_133_" clip-rule="evenodd" fill="#fff" fill-rule="evenodd"/><g id="aeXMLID_75_"><path d="M103.3 30.2c-4.3 0-8.2 1.3-8.4 1.4l-.5.2v6.3l1-.3s3.8-1.2 6.9-1.2c2.1 0 2.5.3 2.5 1.7v.9h-3.2c-5.8 0-9.2 2.9-9.2 8 0 7 4.5 8 7.1 8 2.7 0 4.7-1.1 5.7-1.9l.5 1.5h6.5V38.3c-.1-7.2-4.8-8.1-8.9-8.1zm1.4 13.7v4.5c-.5.3-1.7.8-3.1.8-1.2 0-1.9-.4-1.9-2.2 0-2.2.6-3 4-3.1h1z" class="aest1" id="aeXMLID_127_" fill="#fff"/><path d="M36.7 42.6c.1-4.4-.9-7.7-2.9-9.8-1.7-1.7-4-2.6-6.9-2.6-3.8 0-10.3 1.6-10.3 12.4 0 11.1 6.3 12.4 11.1 12.4 3.7 0 7-1.1 7.1-1.2l.5-.2v-6.3l-1 .3s-3.8 1.1-6.6 1.1c-1.5 0-3.3-.4-3.7-3.4h12.6l.1-2.7zM24.1 40c.2-4.1 1.4-4.5 2.8-4.5 1.1 0 2.3 0 2.5 4.5h-5.3z" class="aest1" id="aeXMLID_187_" fill="#fff"/><path d="M47.9 54.7V37.8c.7-.4 2.4-1.3 3.9-1.3 1 0 1.6.1 1.6 1.7v16.4h7.3v-17c0-4.8-2.4-7.3-7-7.3-2.8 0-5.2 1.5-6.3 2.4l-.7-1.9h-6v23.9h7.2z" class="aest1" id="aeXMLID_146_" fill="#fff"/><path d="M89.6 30.9h-9.1c-.4 0-.8-.1-1.3-.2-.7-.1-1.5-.3-2.9-.3-6.9 0-10.8 3.5-10.8 9.7 0 3 1 5.4 2.9 7.1-1.3 1-2.8 2.5-2.8 5 0 1.6.5 2.9 1.5 3.8-1 .9-2.5 2.5-2.5 5.1 0 5 3.6 7.4 11 7.4 8 0 13.3-1.5 13.3-9 0-6.5-4.1-7.4-8.3-7.6l-7.3-.5c-1.6-.1-1.8-.3-1.8-.9 0-.4.3-.8.8-1.2 1.2.3 2.6.5 4 .5 7 0 10.7-3.3 10.7-9.5 0-1.7-.5-2.8-1-3.5h3.6v-5.9zm-13.9 32c-3.6 0-4.1-1.4-4.1-2.9 0-.8.2-1.5.6-2.1l6.1.4c3.6.2 3.7.4 3.7 1.7 0 1.8-1 2.9-6.3 2.9zm.6-27.2c2.4 0 3.5 1.4 3.5 4.4 0 3.1-1.1 4.4-3.5 4.4-2.5 0-3.5-1.3-3.5-4.4 0-3 1.1-4.4 3.5-4.4z" class="aest1" id="aeXMLID_99_" fill="#fff"/><path d="M140.6 31.2h-9.1c-.4 0-.8-.1-1.3-.2-.7-.1-1.5-.3-2.9-.3-6.9 0-10.8 3.5-10.8 9.7 0 3 1 5.4 2.9 7.1-1.3 1-2.8 2.5-2.8 5 0 1.6.5 2.9 1.5 3.8-1 .9-2.5 2.5-2.5 5.1 0 5 3.6 7.4 11 7.4 8 0 13.3-1.5 13.3-9 0-6.5-4.1-7.4-8.3-7.6l-7.3-.5c-1.6-.1-1.8-.3-1.8-.9 0-.4.3-.8.8-1.2 1.2.3 2.6.5 4 .5 7 0 10.7-3.3 10.7-9.5 0-1.7-.5-2.8-1-3.5h3.6v-5.9zm-13.9 32c-3.6 0-4.1-1.4-4.1-2.9 0-.8.2-1.5.6-2.1l6.1.4c3.6.2 3.7.4 3.7 1.7 0 1.8-1 2.9-6.3 2.9zm.6-27.1c2.4 0 3.5 1.4 3.5 4.4 0 3.1-1.1 4.4-3.5 4.4-2.5 0-3.5-1.3-3.5-4.4 0-3 1.1-4.4 3.5-4.4z" class="aest1" id="aeXMLID_8_" fill="#fff"/><path d="M162.9 42.6c.1-4.4-.9-7.7-2.9-9.8-1.7-1.7-4-2.6-6.9-2.6-3.8 0-10.3 1.6-10.3 12.4 0 11.1 6.3 12.4 11.1 12.4 3.7 0 7-1.1 7.1-1.2l.5-.2v-6.3l-1 .3s-3.8 1.1-6.6 1.1c-1.5 0-3.3-.4-3.7-3.4h12.6l.1-2.7zM150.2 40c.2-4.1 1.4-4.5 2.8-4.5 1.1 0 2.3 0 2.5 4.5h-5.3z" class="aest1" id="aeXMLID_85_" fill="#fff"/></g></g></symbol><symbol viewBox="0 0 25 25" id="facebook"><path fill="currentColor" d="M18.7 4.5h-2.3c-.8 0-1.4.2-1.7.5s-.4.9-.4 1.6v2.7h4.2l-.5 4.3h-3.7v10.9H10V13.6H6.3V9.3H10V6.1c0-1.7.5-3.1 1.5-4.1s2.3-1.5 4-1.5c1.4 0 2.5.1 3.3.2v3.8z"/></symbol><symbol viewBox="0 0 120 126" id="globe"><path fill="currentColor" d="M9.6 27.7c0-3.3 2.7-6 6-6 3.2 0 6 2.7 6 6s-2.7 6-6 6-6-2.7-6-6zM27 69c3.2 0 6-2.7 6-6s-2.7-6-6-6c-3.2 0-6 2.7-6 6s2.8 6 6 6zm51.5-33.9c0 3.3 2.7 6 6 6 3.2 0 6-2.7 6-6s-2.7-6-6-6c-3.3.1-6 2.8-6 6zM113 56.7c-3.2 0-6 2.7-6 6s2.7 6 6 6 6-2.7 6-6-2.7-6-6-6zM63.7 86.5c0-3.3-2.7-6-6-6-3.2 0-6 2.7-6 6s2.7 6 6 6c3.3-.1 6-2.8 6-6zm49.3-13h.8C109 99.9 85.8 120 58 120c-20.7 0-38.8-11.1-48.7-27.7C4 83.7 1 73.7 1 63c0-8.9 2.2-17.7 6.3-25.6l.1.1c.4-.8.9-1.7 1.3-2.5.8.8 1.8 1.5 2.9 2-4.1 7.2-6.5 15.4-6.9 24.2h11.8c-.1.6-.2 1.1-.2 1.7s.1 1.2.2 1.7H4.7C5.1 76.1 9 86.7 15.4 95.2l1.8-1.1c3.1-1.8 6.8-3.4 11.1-4.9l.5-.2-.1-.5c-1.4-4.9-2.4-9.8-2.9-14.9.4.1.8.1 1.3.1.9 0 1.6-.1 2.3-.2.5 5 1.4 9.7 2.7 14l.1.5.5-.1c4.5-1.2 9.4-2.1 14.4-2.7-.1.4-.1.9-.1 1.3 0 .7.1 1.5.3 2.2-4.9.5-9.4 1.4-13.4 2.5l-.5.1.2.5c3.4 9.6 10.5 19.6 16.6 24 2 .3 4 .5 6.1.5V97.1c.5.1 1.1.1 1.6.1.6 0 1.3-.1 1.9-.2v19.4c1 0 2-.1 3-.2.6-.1 1.2-.1 1.7-.2 7.8-4.2 14.3-13.9 17.9-24.2l.2-.5-.6-.1c-3.9-1.2-8.4-2-13.7-2.6.1-.8.2-1.5.2-2.2 0-.4 0-.9-.1-1.4 4.7.5 9.7 1.4 14.6 2.8l.5.1.1-.5c1.9-6.8 3-14.5 3.2-22.2v-.5H59.6V76c-.6-.1-1.3-.2-1.9-.2-.5 0-1.1.1-1.6.1V64.8H37.6c.1-.6.2-1.2.2-1.8 0-.6-.1-1.2-.2-1.7H56V41.1h-.5c-7.9-.2-15.6-1.3-22.7-3.2l-.5-.1-.1.5c-1.4 4.7-2.3 9.5-2.8 14.3-.7-.2-1.5-.3-2.3-.3h-1.4c.6-5.4 1.6-10.6 3-15.3l.1-.5-.5-.2c-1.6-.5-3.1-1.1-4.6-1.7.8-.9 1.4-1.9 1.9-3.1 1.3.6 2.6 1 3.8 1.4l.5.2.2-.5c5.6-11.9 10.6-16.4 16.5-21.5-8.2 1.8-15.8 5.5-22.1 10.6-.7-1-1.5-1.8-2.5-2.5.6-.5 1.1-.9 1.7-1.3l-.1-.1c5.9-4.4 12.5-7.6 19.5-9.5h.1c.6-.2 1.3-.3 2-.5.2-.1.4-.1.7-.1.5-.1.9-.2 1.4-.3.4-.1.8-.2 1.2-.2.2 0 .5-.1.7-.1 2.8-.4 5.7-.6 8.8-.6 27.4 0 50.4 19.6 55.6 45.5h-.6c-1 0-2 .1-2.9.4-1.7-8-5.2-15.4-10-21.6-.9.5-2.7 1.4-3 1.5-.7.3-1.3.7-2 1-.2-1.2-.6-2.3-1.2-3.3.2-.1.5-.2.7-.4l1.2-.6 2-1.1C90.6 19.8 81.1 14 70.2 11.4 75.9 15.7 81 22.8 82 24.8c-1.2.2-2.3.7-3.3 1.4-3-5.6-9.4-12.4-14-15.7-1.7-.2-3.4-.3-5.1-.4v27.6h.5c4.5-.1 9-.5 13.7-1.3.1 1.2.4 2.4.9 3.4-4.6.8-9.5 1.3-14.6 1.4h-.5v20.2h27.2v-.5c-.1-4.8-.6-9.7-1.5-14.9 1.2-.1 2.4-.4 3.5-.9 1 5.1 1.5 10.4 1.6 15.7v.5h12c-.1.4-.1.9-.1 1.4 0 .7.1 1.5.2 2.1H90.4v.5c-.3 8.5-1.4 16.4-3.4 23.3l-.1.5.5.2c3.8 1.2 7.6 2.9 11.1 4.9l1.9 1.3c4.9-6.5 8.4-14.1 10-22.3.8.1 1.7.3 2.6.3zm-56.9-36V10c-1.7.1-3.3.2-4.9.4-4.3 3.8-14.5 13.6-17.6 23.3l-.2.5.5.1c6.6 1.8 13.9 2.9 21.6 3.1h.6zm36.5 66.2c.4-.3.7-.6 1.1-1l.3-.3c1.4-1.3 2.8-2.7 4-4.2l-2-1.4c-3.1-1.7-6.2-3.1-9.6-4.3l-.5-.2-.2.5c-2 5.6-4.5 10.5-7.4 14.6l-.3.3c-.5.7-1.1 1.5-1.7 2.1l-.2.2c0 .1-.4.6-1 1.3-.7.9-1.5 1.9-2.2 2.7l3-.8 1.4-.6c5.6-2 10.7-5.1 15.3-8.9zM17.7 98c6.2 7.2 14.3 12.7 23.5 15.7l2.6.7c-7.7-7.2-11.4-14.8-13.8-21.6l-.2-.5-.5.2c-3.4 1.2-6.6 2.6-9.6 4.3l-2 1.2z"/></symbol><symbol viewBox="0 0 120 126" id="house"><path fill="currentColor" d="M9.2 126V72.7l-.6-.3C3.4 70.1 0 65.1 0 60V38.8l20.3-20.3V0h79.3v18.5L120 38.8V60c0 5.6-2.9 10.3-7.5 12.4l-.6.3V126H9.2zm41.7-4.1h56.9V73.6h-1c-3.9 0-8.4-2.3-10.8-5.4l-.8-1.1-.8 1.1c-2.5 3.4-6.4 5.4-10.7 5.4-4.2 0-8.2-2-10.8-5.4l-.8-1.1-.8 1.1c-2.5 3.4-6.5 5.4-10.8 5.4-4.2 0-8.2-2-10.8-5.4l-.7-1.1-.8 1.1c-2.5 3.4-6.5 5.4-10.8 5.4-4.2 0-8.2-2-10.8-5.4l-.8-1.1-.8 1.1c-2.4 3.2-6.7 5.4-10.7 5.4h-1V122h7.1V81.3h30.5v40.6zm-26.5 0h22.4V85.4H24.4v36.5zM97.6 60c0 5.4 4.3 9.8 9.7 9.8 5.3 0 9.7-4.4 9.7-9.8V44.7H4.1V60c0 5.4 4.3 9.8 9.7 9.8s9.7-4.4 9.7-9.8v-5.1h4.1V60c0 5.4 4.3 9.8 9.7 9.8S47 65.4 47 60v-5.1h4.1V60c0 5.4 4.3 9.8 9.7 9.8s9.7-4.4 9.7-9.8v-5.1h4.1V60c0 5.4 4.3 9.8 9.7 9.8 5.3 0 9.7-4.4 9.7-9.8v-5.1h4.1V60zm0-19.4H117L97.5 21.3h-9.1v3.2L97.6 39v1.6zM71.2 24.9l3 15.8h19.7l-9.5-15v-4.3H71.2v3.5zM50.6 40.6h19.8L67.1 25v-3.7H53.7v4.3l-3.1 15zm-23.5 0H47v-1.5l2.8-14.2v-3.6H36.6v4.3l-9.5 15zM4 40.6h19.3v-1.5l9.2-14.5v-3.2h-9.1L4 40.6zm20.4-23.3h72.2V4.1H24.4v13.2zM59 108.7V81.3h40.7v27.4H59zm3-4h34.6V85.4H62v19.3zm-23.4 1v-4.1h3.1v4.1h-3.1z"/></symbol><symbol viewBox="0 0 25 25" id="linked-in"><path fill="currentColor" d="M6 8.5V24H.8V8.5H6zm.3-4.8c0 .8-.3 1.4-.8 1.9s-1.3.8-2.1.8c-.9 0-1.5-.3-2.1-.8S.5 4.5.5 3.7c0-.8.3-1.4.8-1.9S2.5 1 3.4 1s1.6.3 2.1.8.8 1.1.8 1.9zm18.2 11.4V24h-5.1v-8.3c0-1.1-.2-2-.6-2.6s-1.1-.9-2-.9c-.7 0-1.2.2-1.6.5s-.8.8-1 1.3c-.1.3-.2.7-.2 1.3V24H8.8V13.9 8.5h5.1v2.2l.6-.9c.2-.3.5-.5.9-.8.4-.3.8-.5 1.4-.7.5-.2 1.1-.2 1.8-.2 1.8 0 3.2.6 4.3 1.8s1.6 2.9 1.6 5.2z"/></symbol><symbol viewBox="0 0 143 27.8" id="logo"><path fill="currentColor" d="M25.4 6.1c-.4-.2-.8-.2-1.2-.1-.1 0-.2 0-.3.1l-3.1 1-.2 6.5c0 .5-.3 1.1-.7 1.6-.4.5-1 .9-1.5 1.1L5.2 20.7l-.1 5.8c0 1 .8 1.5 1.8 1.3.1 0 .2 0 .3-.1l16.3-5.4c.6-.2 1.1-.6 1.5-1.1s.7-1.1.7-1.6L26 7.3c0-.5-.2-.9-.6-1.2M7.6 11.5l13.2-4.4.1-5.8c0-.5-.2-.9-.6-1.2-.3-.1-.7-.2-1.2-.1-.1 0-.2 0-.3.1L2.5 5.6C1.3 6 .3 7.2.3 8.2L0 20.5c0 1 .8 1.5 1.8 1.3.1 0 .2 0 .3-.1l3.1-1 .2-6.5c0-1.1 1-2.3 2.2-2.7m28.8-1.7c-.8 0-1.7.5-1.7.5V17s.8.2 1.4.2c1 0 1.7-.3 1.7-3.8 0-3.4-.7-3.6-1.4-3.6m.9 10.7c-1.4 0-2.6-.5-2.6-.5v5.1l-5.1 1.7V6.6h4.3l.6 1s1.5-1.3 3.4-1.3c2.1 0 5 .5 5 7 0 6.6-3.7 7.2-5.6 7.2M51 13.9h-.5c-1.4.1-1.8.4-1.8 1.8 0 1.3.4 1.5 1 1.5.5 0 1.3-.5 1.3-.5v-2.8zm.6 6.3l-.5-1.2s-1.2 1.5-3.7 1.5c-1.7 0-3.9-.7-3.9-4.4s3.1-4.5 5.1-4.5H51V11c0-.8-.4-1-1.6-1-1.6 0-4.3.6-4.3.6V7.1s2.6-.7 5.1-.7c3.3 0 5.9.8 5.9 4.7v9.2l-4.5-.1zm14.5 1.2c-1 3.3-2.9 4-5.3 4-1.9 0-3.6-.6-3.6-.6v-3.4s2.1.5 2.9.5c1.1 0 1.4-.3 1.6-1.2l.1-.5-5.6-13.6H62l1.8 9 1.6-9h5.4l-4.7 14.8zm24-1.2h-6.6l-.7-4.9c-.3-1.6-.8-6-.8-6s-.6 4.4-.8 5.9l-.8 4.9h-6.6L71 6.6h5.1l.5 6c.1 1.5.4 5 .4 5s.5-3.5.7-5l1.1-6h6.3l1.1 6c.2 1.3.7 5 .7 5s.3-3.7.4-5l.6-6h5l-2.8 13.6zM100 9.6c-1.3 0-1.9.8-1.9 3.8 0 3.1.8 3.8 1.9 3.8s1.9-.4 1.9-3.8c0-3.2-.6-3.8-1.9-3.8m0 10.9c-3.1 0-7-1-7-7.1 0-5.9 3.8-7.1 7-7.1 3.1 0 7 1 7 7.1 0 6.2-4 7.1-7 7.1m14.9-10c-1 0-1.8.4-1.8.4v9.4H108V6.6h4l.8 1.4s.6-1.6 2.7-1.6c.8 0 1.4.2 1.4.2v4.2c.1-.1-1-.3-2-.3m11.1 9.7l-3-7.5 2.5-6.2h5.7l-3.1 6 3.6 7.7H126zm-8.1 0V1.8L123 0v20.2h-5.1zm19 .3c-2.3 0-4.4-.7-4.4-.7v-3.7s2.7.7 4 .7c.9 0 1.5 0 1.5-.7s-.9-.8-1.6-1.1l-1-.3c-1.4-.4-3.3-1.2-3.3-4 0-3.5 2.8-4.4 5.7-4.4 2.8 0 4.4.7 4.4.7v3.6s-2.7-.7-3.9-.7c-1 0-1.2.2-1.2.6 0 .6.8.7 1.5.9l1 .3c1.5.4 3.4 1.2 3.4 4.1 0 4-3 4.7-6.1 4.7"/></symbol><symbol viewBox="0 0 185 185" id="pulse-logo"><style id="akstyle3">.akst0{fill:#143672}.akst1{fill:none;stroke:#0d2048;stroke-width:4;stroke-miterlimit:10}.akst2{fill-rule:evenodd;clip-rule:evenodd}.akst2,.akst3{fill:#fff}</style><circle r="92.3" cy="92.6" cx="92.5" class="akst0" id="akXMLID_1826_"/><circle r="35.4" cy="94.2" cx="93.6" class="akst1" id="akXMLID_4_"/><path d="M163.2 99.2l3.6-1.2c2.3-.8 3.1.3 3.1 2.6v14.1c0 2-.9 2.9-2.7 3.5l-23.8 8.6c-.8.3-1.5-.7-1.5-1.6v-8.4l18.6-6.7c1.8-.7 2.7-1.5 2.7-3.5v-7.4z" class="akst2" id="akXMLID_22_"/><path d="M23.3 64.2L45 57c2.3-.8 3.1.3 3.1 2.6v6.7l-18.1 6c-1.9.6-3.3 1.2-3.3 3.5v8.1l-5.2 1.9c-.8.3-1.5-.7-1.5-1.6V67.7c.1-2.3 1.5-2.9 3.3-3.5z" class="akst2" id="akXMLID_21_"/><g id="akXMLID_9_"><g id="akXMLID_23_"><path d="M105.7 107c1.9.6 4.3.5 6.9.5 7.5 0 11.3-3.1 11.3-7.4-.1-3.3-2.1-5.5-7.1-7.1-3.9-1.2-4.1-2.9-2.1-3.5 1.4-.4 3.8 0 6.5.4v-6c-2.9-.6-7.2-.4-9.3-.1-2.2.4-4 1.1-5.3 2.3-2.3 2.2-2.7 7.2-.1 9.4 1.2 1 3 1.6 5.8 2.4 2.9.9 3.2 3 .3 3-2.4 0-5.4-.2-6.9-1v7.1z" class="akst2" id="akXMLID_32_"/></g><g id="akXMLID_18_"><path d="M37.5 119.6l8.3-3.1v-11.7h.1c1 1.5 3 2.7 5.6 2.7 4.8 0 9.8-4 9.8-12.6 0-7.5-4.3-12-9-12-3.1 0-5.6 1.3-7.2 3.8H45l-.3-3.3h-7.4c.5 11 .2 25.3.2 36.2zm8.3-26.2c0-.5 0-1.2.1-1.6.4-2.7 1.7-3 3.2-3 2.4 0 3.6 1.9 3.6 6.7 0 5.1-1.4 6.7-3.7 6.7-1.6 0-2.8-.2-3.1-2.7-.1-.6-.1-1.2-.1-2v-4.1z" class="akst2" id="akXMLID_28_"/></g><path d="M146.6 95.6c.1-4.3-.9-7.5-2.9-9.6-1.6-1.7-3.9-2.5-6.7-2.5-3.7 0-10 1.6-10 12.1 0 10.8 6.2 12.1 10.8 12.1 3.6 0 6.8-1.1 6.9-1.2l.5-.2v-6.1l-1 .3s-3.7 1.1-6.5 1.1c-1.5 0-3.2-.4-3.6-3.4h12.3l.2-2.6zm-12.4-2.5c.2-4 1.3-4.3 2.8-4.3 1.1 0 2.2 0 2.4 4.3h-5.2z" class="akst3" id="akXMLID_29_"/><g id="akXMLID_5_"><path d="M100 72.8l-8.6 3v31.7h8.6V72.8z" class="akst2" id="akXMLID_13_"/></g><path d="M78.3 83.3v17.2c-.7.4-2.5 1.3-4 1.3-1 0-1.6-.1-1.6-1.8V83.3h-7.4v17.4c0 4.8 2.5 7.4 7.2 7.4 2.9 0 5.3-1.5 6.4-2.4l.7 2h6.1V83.3h-7.4z" class="akst3" id="akXMLID_26_"/></g></symbol><symbol viewBox="0 0 92 92" id="pulse_center"><circle fill="#143672" cx="46" cy="46" r="45.6"/></symbol><symbol viewBox="0 0 120 120" id="pulse_item1"><path fill="#143672" d="M65.3 119.1c-1.4.2-3 .2-4.4.3v-8.9c1.2 0 2.4-.1 3.5-.2l.9 8.8zM71.5 118.2c-1.4.3-2.9.5-4.4.7l-.9-8.9c1.2-.2 2.3-.3 3.4-.5l1.9 8.7zM77.5 116.7c-1.4.4-2.8.8-4.3 1.2l-1.8-8.7c1.1-.3 2.3-.6 3.4-.9l2.7 8.4zM83.3 114.5c-1.3.6-2.7 1.1-4.1 1.6l-2.8-8.4c1.1-.4 2.2-.8 3.2-1.3l3.7 8.1zM88.9 111.8c-1.3.7-2.6 1.4-3.9 2l-3.6-8.1c1-.5 2.1-1 3.1-1.6l4.4 7.7zM99 104.6c-1.1.9-2.3 1.8-3.4 2.8l-5.2-7.1c.9-.7 1.9-1.4 2.7-2.2l5.9 6.5zM103.5 100.3c-1 1.1-2 2.1-3.1 3.1l-6-6.6c.9-.8 1.7-1.6 2.4-2.5l6.7 6zM107.4 95.6c-.8 1.2-1.8 2.3-2.8 3.5l-6.6-6c.8-.9 1.5-1.8 2.2-2.7l7.2 5.2zM110.9 90.4c-.8 1.3-1.6 2.5-2.4 3.7l-7.2-5.2c.7-.9 1.3-1.9 1.9-2.9l7.7 4.4zM113.8 84.9c-.6 1.3-1.3 2.6-2 3.9l-7.7-4.4c.6-1 1.1-2 1.6-3.1l8.1 3.6zM116.1 79.2c-.5 1.4-1 2.8-1.6 4.1l-8.1-3.6c.4-1.1.9-2.1 1.3-3.2l8.4 2.7zM118.9 67.1c-.2 1.4-.4 2.9-.7 4.4l-8.7-1.8c.3-1.1.4-2.3.5-3.5l8.9.9zM119.3 60.9c0 1.5-.1 2.9-.3 4.4l-8.9-.9c.1-1.2.2-2.3.2-3.5h9zM119.1 54.6c.1 1.4.1 3 .3 4.4h-8.9c0-1.2-.1-2.4-.2-3.5l8.8-.9zM118.2 48.5c.3 1.4.5 2.9.7 4.4l-8.9.9c-.1-1.2-.3-2.3-.5-3.5l8.7-1.8zM114.6 36.7c.6 1.3 1.1 2.7 1.6 4.1l-8.4 2.8c-.4-1.1-.8-2.2-1.3-3.2l8.1-3.7zM111.8 31.2c.6 1.3 1.3 2.6 2 3.9l-8.1 3.6c-.5-1-1-2.1-1.6-3.1l7.7-4.4zM108.5 25.9c.8 1.2 1.7 2.4 2.4 3.7l-7.7 4.5c-.6-1-1.3-1.9-1.8-3l7.1-5.2zM104.7 20.9c.9 1.1 1.9 2.3 2.8 3.5l-7.1 5.2c-.7-.9-1.4-1.8-2.2-2.7l6.5-6zM95.6 12.5c1.2.9 2.3 1.8 3.5 2.8l-6 6.6c-.9-.8-1.8-1.5-2.7-2.2l5.2-7.2zM90.4 9.1c1.3.8 2.5 1.5 3.7 2.4l-5.2 7.2C88 18 87 17.4 86 16.8l4.4-7.7zM84.9 6.1c1.4.6 2.6 1.3 3.9 2l-4.4 7.7c-1-.6-2-1.1-3.1-1.6l3.6-8.1zM79.2 3.8c1.4.5 2.8 1 4.1 1.6l-3.6 8.1c-1.1-.4-2.1-.9-3.2-1.3l2.7-8.4zM73.2 2.2c1.4.4 2.9.7 4.3 1.2l-2.8 8.4c-1.1-.3-2.2-.7-3.4-.9l1.9-8.7zM67.1 1.1c1.4.2 2.9.4 4.4.7l-1.9 8.7c-1.1-.3-2.3-.4-3.4-.5l.9-8.9zM50.4 109.5c1.1.3 2.3.4 3.4.5l-.9 8.9c-1.4-.2-2.9-.4-4.4-.7l1.9-8.7zM45.2 108.2c1.1.3 2.2.7 3.4.9l-1.8 8.7c-1.4-.4-2.9-.7-4.2-1.2l2.6-8.4zM40.4 106.4c1.1.4 2.1.9 3.2 1.3l-2.8 8.4c-1.4-.5-2.8-1-4.1-1.6l3.7-8.1zM35.6 104.1c1 .6 2 1.1 3.1 1.6l-3.6 8.1c-1.4-.6-2.6-1.3-3.9-2l4.4-7.7zM31.1 101.3c.9.7 1.9 1.3 2.9 1.9l-4.5 7.7c-1.3-.8-2.5-1.5-3.7-2.4l5.3-7.2zM27 98c.9.8 1.8 1.5 2.7 2.2l-5.2 7.1c-1.2-.8-2.3-1.8-3.4-2.8L27 98zM23.2 94.4c.8.9 1.6 1.7 2.4 2.5l-6 6.6c-1.1-1-2.1-2-3.1-3.1l6.7-6zM19.7 90.4c.7.9 1.4 1.8 2.2 2.7l-6.6 6c-.9-1.1-1.9-2.3-2.8-3.5l7.2-5.2zM16.8 86c.6 1 1.3 1.9 1.9 3l-7.2 5.2c-.8-1.2-1.7-2.5-2.5-3.7l7.8-4.5zM14.3 81.3c.5 1 1 2.1 1.6 3.1l-7.7 4.4c-.7-1.3-1.4-2.6-2-3.9l8.1-3.6zM12.3 76.4c.4 1.1.8 2.2 1.3 3.2l-8.1 3.6c-.6-1.4-1.1-2.7-1.6-4.1l8.4-2.7zM10.9 71.3c.3 1.1.6 2.3.9 3.4l-8.4 2.8c-.4-1.5-.9-2.8-1.2-4.3l8.7-1.9zM10 66.1c.1 1.2.3 2.3.5 3.4l-8.7 1.9c-.3-1.4-.5-2.8-.7-4.4l8.9-.9zM9.6 60.9c0 1.2.1 2.4.2 3.5l-8.9.9c-.1-1.4-.1-2.9-.3-4.4h9zM9.8 55.6c-.1 1.2-.2 2.3-.2 3.5H.7c0-1.5.1-3 .3-4.4l8.8.9zM10.5 50.3c-.3 1.1-.4 2.3-.5 3.5l-8.9-.9c.2-1.4.4-2.9.7-4.4l8.7 1.8zM11.8 45.3l-.9 3.3-8.7-1.8c.3-1.4.6-2.9 1.1-4.2l8.5 2.7zM13.6 40.3c-.4 1.1-.9 2.1-1.3 3.2l-8.4-2.8c.5-1.4 1-2.8 1.6-4.2l8.1 3.8zM16 35.5c-.6 1-1.1 2-1.6 3.1L6.2 35c.6-1.4 1.3-2.6 2-4l7.8 4.5zM18.7 31.1c-.7.9-1.2 1.9-1.8 2.9l-7.6-4.5c.8-1.3 1.5-2.5 2.4-3.7l7 5.3zM21.9 26.9c-.8.9-1.5 1.8-2.2 2.7l-7.1-5.2c.8-1.2 1.8-2.3 2.8-3.5l6.5 6zM25.6 23.2c-.9.8-1.7 1.6-2.4 2.4l-6.6-6c1-1.1 2-2.1 3.1-3.1l5.9 6.7zM29.7 19.7c-.9.7-1.9 1.4-2.7 2.2l-6-6.6c1.1-.9 2.3-1.9 3.4-2.8l5.3 7.2zM38.7 14.3c-1 .5-2.1 1-3.1 1.6l-4.4-7.6c1.3-.7 2.6-1.4 3.9-2l3.6 8zM43.6 12.3c-1.1.4-2.2.8-3.2 1.3l-3.6-8.1c1.4-.6 2.7-1.1 4.1-1.6l2.7 8.4zM48.6 10.8c-1.1.3-2.3.6-3.4.9l-2.8-8.4c1.4-.4 2.8-.8 4.3-1.2l1.9 8.7zM53.9 9.9c-1.2.1-2.3.3-3.4.5l-1.9-8.7c1.4-.3 2.9-.5 4.4-.7l.9 8.9zM59.1 9.6c-1.2 0-2.4.1-3.5.2L54.7.9c1.4-.2 3-.2 4.4-.3v9zM60.9.6c1.5 0 3 .1 4.4.3l-.9 8.9c-1.2-.1-2.3-.2-3.5-.2v-9z"/><path fill="#EECD17" d="M34.1 16.7c-1 .6-1.9 1.3-2.9 1.9L26 11.4c1.2-.9 2.4-1.7 3.7-2.4l4.4 7.7z"/><path fill="#753E91" d="M100.4 16.5c1.1 1 2.1 2 3.1 3.1l-6.6 6c-.8-.9-1.6-1.7-2.4-2.4l5.9-6.7z"/><path fill="#F2665E" d="M117.9 73.2c-.4 1.4-.7 2.9-1.2 4.2l-8.4-2.8c.3-1.1.7-2.2.9-3.4l8.7 2zM116.7 42.5c.4 1.4.8 2.8 1.2 4.3l-8.8 1.8c-.3-1.1-.6-2.3-.9-3.4l8.5-2.7z"/><path fill="#52C0A7" d="M94.1 108.5c-1.2.8-2.4 1.7-3.7 2.4l-4.5-7.7c1-.6 1.9-1.3 2.9-1.9l5.3 7.2z"/><path fill="#143672" d="M59.1 119.3c-1.5 0-3-.1-4.4-.3l.9-8.9c1.2.1 2.3.2 3.5.2v9z"/></symbol><symbol viewBox="0 0 384 384" id="pulse_item10"><g fill="#143672"><path d="M191.1 382.7c-6.2 0-12.2-.3-18.2-.9l1.2-11.2c5.6.6 11.3.8 17 .8v11.3zM230.9 378.8c-5.9 1.3-11.9 2.2-18 2.9l-1.2-11.2c5.7-.6 11.3-1.5 16.9-2.6l2.3 10.9zM286.8 357.6c-5.2 3-10.7 5.8-16.2 8.2l-4.6-10.4c5.2-2.4 10.3-5 15.2-7.7l5.6 9.9zM333.5 320.1c-4.1 4.5-8.4 8.7-12.9 12.9l-7.6-8.4c4.2-3.8 8.2-7.9 12-12l8.5 7.5zM357.2 287.9c-3 5.2-6.4 10.4-9.9 15.3l-9.1-6.7c3.3-4.6 6.4-9.4 9.3-14.2l9.7 5.6zM366.4 270.1c-2.5 5.6-5.3 10.9-8.3 16.2l-9.8-5.6c2.8-4.9 5.4-10 7.7-15.2l10.4 4.6zM373.6 251.4c-1.9 5.8-4.1 11.5-6.6 17l-10.4-4.7c2.3-5.1 4.3-10.4 6.2-15.9l10.8 3.6zM382.1 212.4c-.7 6.1-1.6 12.1-2.9 18l-11-2.4c1.2-5.6 2-11.1 2.6-16.9l11.3 1.3zM382.3 172.4c.6 6 .9 12 .9 18.2h-11.3c0-5.7-.4-11.4-.9-17l11.3-1.2zM379.3 152.6c1.3 5.9 2.2 11.9 2.9 18l-11.2 1.1c-.6-5.7-1.5-11.3-2.6-16.9l10.9-2.2zM367.1 114.5c2.4 5.6 4.6 11.2 6.6 17l-10.8 3.5c-1.8-5.4-3.9-10.7-6.1-16l10.3-4.5zM358.1 96.6c3 5.2 5.8 10.7 8.3 16.3l-10.4 4.6c-2.4-5.2-5-10.3-7.8-15.2l9.9-5.7zM305.1 37.3c4.9 3.6 9.6 7.4 14.2 11.5l-7.6 8.4c-4.2-3.8-8.7-7.3-13.2-10.7l6.6-9.2zM288.4 26.3c5.2 3 10.4 6.4 15.2 10l-6.7 9.1c-4.6-3.3-9.3-6.4-14.2-9.2l5.7-9.9zM270.6 17.1c5.6 2.5 10.9 5.3 16.2 8.2l-5.6 9.8c-4.9-2.8-9.9-5.4-15.2-7.7l4.6-10.3zM232.7 4.6c6 1.3 11.9 2.9 17.6 4.7l-3.5 10.8c-5.4-1.7-10.9-3.2-16.4-4.4l2.3-11.1zM212.9 1.4c6.1.7 12.2 1.6 18 2.9l-2.4 11c-5.6-1.2-11.1-2-16.9-2.6l1.3-11.3zM155.4 367.7c5.6 1.2 11.1 2 16.9 2.6l-1.2 11.2c-6.1-.7-12.2-1.6-18-2.9l2.3-10.9zM87 337.6c4.6 3.3 9.4 6.4 14.2 9.2l-5.7 9.8c-5.2-3-10.4-6.4-15.2-9.9l6.7-9.1zM47 298c3.4 4.6 6.9 9 10.7 13.2l-8.4 7.6c-4.1-4.6-7.9-9.3-11.5-14.2L47 298zM13.1 211.2c.6 5.7 1.5 11.3 2.6 16.9l-11 2.4c-1.3-5.9-2.2-11.9-2.9-18l11.3-1.3zM13 173.6c-.6 5.6-.8 11.3-.9 17H.8c0-6.1.3-12.2.9-18.2l11.3 1.2zM20.6 136.8c-1.7 5.4-3.2 10.9-4.4 16.4l-11-2.4c1.3-6 2.9-11.9 4.7-17.6l10.7 3.6zM27.2 119.2c-2.3 5.1-4.3 10.4-6.1 15.9l-10.8-3.4c1.9-5.8 4.1-11.5 6.6-17l10.3 4.5zM85.5 46.4c-4.5 3.4-9 6.9-13.2 10.7l-7.6-8.4c4.6-4 9.2-7.8 14.2-11.4l6.6 9.1zM117.9 27.4c-5.2 2.4-10.3 5-15.2 7.7l-5.6-9.8c5.2-3 10.7-5.8 16.2-8.3l4.6 10.4z"/></g><path fill="#EECD17" d="M303.7 346.7c-4.9 3.5-10 6.8-15.2 9.9l-5.6-9.8c4.9-2.9 9.7-6 14.2-9.2l6.6 9.1zM21.1 248c1.8 5.4 3.9 10.7 6.2 15.9l-10.4 4.6c-2.4-5.6-4.7-11.2-6.6-17l10.8-3.5zM172.3 12.6c-5.7.6-11.3 1.5-16.9 2.6l-2.4-11c5.9-1.2 11.9-2.2 18-2.9l1.3 11.3z"/><path fill="#753E91" d="M102.8 347.8c4.9 2.8 10 5.4 15.2 7.7l-4.6 10.4c-5.6-2.5-10.9-5.3-16.2-8.2l5.6-9.9zM12 192.4c0 5.7.4 11.4.9 17l-11.2 1.2c-.6-6-.9-12-.9-18.2H12z"/><path fill="#F2665E" d="M57.7 71.8C53.9 76 50.4 80.5 47 85l-9.1-6.6c3.6-4.9 7.4-9.6 11.4-14.2l8.4 7.6z"/></symbol><symbol viewBox="0 0 423 423" id="pulse_item11"><g fill="#753E91"><path d="M381.4 336.7c-4 5.5-8.2 10.7-12.7 15.7l-8.7-7.9c4.2-4.7 8.2-9.6 11.9-14.7l9.5 6.9zM112.6 384.9c5.5 3.1 11.1 6.1 16.9 8.7l-4.8 10.8c-6.2-2.8-12.2-5.9-18-9.2l5.9-10.3z"/></g><path fill="#F2665E" d="M62.8 79.6c-4.2 4.7-8.2 9.6-11.9 14.7l-9.5-6.9c4-5.5 8.2-10.7 12.7-15.7l8.7 7.9z"/><path fill="#143672" d="M210.4 422.9c-6.8 0-13.6-.4-20.2-1l1.3-11.7c6.2.6 12.5.9 18.9 1v11.7zM254.3 418.5c-6.6 1.3-13.2 2.4-19.9 3.1l-1.3-11.7c6.3-.7 12.7-1.7 18.8-2.9l2.4 11.5zM275.6 412.9c-6.4 2-12.9 3.8-19.5 5.2l-2.4-11.5c6.2-1.3 12.4-3 18.4-4.9l3.5 11.2zM316 395c-5.8 3.4-11.9 6.4-18 9.2l-4.8-10.8c5.8-2.6 11.4-5.5 16.9-8.7L316 395zM334.5 383.1c-5.4 3.9-11.1 7.7-16.9 11l-5.9-10.2c5.4-3.2 10.8-6.6 15.9-10.4l6.9 9.6zM367.4 353.8c-4.6 5-9.3 9.8-14.3 14.3l-7.9-8.7c4.7-4.3 9.2-8.7 13.4-13.4l8.8 7.8zM403.6 298.6c-2.8 6.1-5.9 12.2-9.2 18l-10.2-5.9c3.1-5.4 6.1-11.1 8.7-16.9l10.7 4.8zM422.2 212.9c0 6.8-.4 13.6-1.1 20.2l-11.7-1.3c.6-6.2.9-12.5 1-19h11.8zM421.1 190.9c.7 6.7 1 13.4 1 20.2h-11.8c0-6.4-.3-12.7-1-19l11.8-1.2zM412.2 147.7c2 6.4 3.8 12.9 5.2 19.6l-11.5 2.4c-1.4-6.2-3-12.4-4.9-18.4l11.2-3.6zM382.4 88.8c4 5.5 7.7 11.1 11 16.9l-10.2 5.9c-3.2-5.5-6.7-10.8-10.4-15.9l9.6-6.9zM368.6 71.7c4.5 5.1 8.7 10.3 12.7 15.7l-9.5 6.9c-3.8-5.1-7.7-10-11.9-14.7l8.7-7.9zM336 42c5.4 3.9 10.7 8.2 15.7 12.7l-7.9 8.8c-4.7-4.2-9.6-8.2-14.7-12L336 42zM298 19.7c6.1 2.8 12.2 5.9 18 9.2l-5.9 10.2c-5.5-3.1-11.1-6.1-16.9-8.7l4.8-10.7zM277.4 11.8c6.4 2.1 12.7 4.6 18.9 7.2l-4.8 10.8c-5.8-2.5-11.7-4.8-17.7-6.8l3.6-11.2zM131.2 394.2c5.8 2.5 11.7 4.8 17.7 6.8l-3.6 11.2c-6.4-2.1-12.7-4.6-18.9-7.2l4.8-10.8zM78.8 360.5c4.7 4.2 9.6 8.2 14.7 12l-6.9 9.5c-5.4-4-10.6-8.3-15.6-12.7l7.8-8.8zM50.9 329.8c3.8 5.2 7.7 10 11.9 14.8l-8.7 7.9c-4.5-5.1-8.7-10.3-12.7-15.7l9.5-7zM29.9 293.8c2.6 5.8 5.4 11.5 8.7 16.9l-10.2 5.9c-3.4-5.8-6.4-11.9-9.2-18l10.7-4.8zM22.3 274.4c2 6.1 4.3 11.9 6.8 17.7l-10.8 4.8c-2.7-6.2-5.2-12.5-7.2-18.9l11.2-3.6zM13.5 233.7c.7 6.3 1.7 12.6 3 18.8L4.9 255c-1.4-6.6-2.4-13.2-3.1-20l11.7-1.3zM16.4 171.5c-1.3 6.2-2.3 12.4-3 18.8L1.7 189c.8-6.7 1.8-13.4 3.1-20l11.6 2.5zM29.2 131.9c-2.5 5.8-4.8 11.7-6.8 17.7L11.2 146c2.1-6.4 4.6-12.7 7.2-18.9l10.8 4.8zM49.8 95.8c-3.7 5.1-7.2 10.4-10.4 15.9l-10.2-5.9c3.4-5.8 7.1-11.5 11-17l9.6 7zM93.6 51.5c-5.1 3.8-10 7.7-14.7 12L71 54.7C76 50.3 81.2 46 86.6 42l7 9.5zM129.5 30.5c-5.8 2.6-11.4 5.5-16.9 8.7L106.7 29c5.8-3.4 11.9-6.4 18-9.2l4.8 10.7zM148.9 22.9c-6.1 2-12 4.3-17.7 6.8L126.5 19c6.1-2.7 12.4-5.1 18.9-7.2l3.5 11.1zM189.6 14.1c-6.3.7-12.7 1.7-18.8 2.9l-2.4-11.5c6.6-1.4 13.2-2.4 20-3.1l1.2 11.7z"/><path fill="#52C0A7" d="M417.4 256.7c-1.4 6.7-3.2 13.2-5.2 19.5l-11.2-3.6c1.9-6 3.5-12.1 4.9-18.4l11.5 2.5zM210.4 12.9c-6.4 0-12.7.3-18.9 1l-1.3-11.7c6.7-.6 13.4-1 20.2-1v11.7zM212.3 1.1c6.8 0 13.6.4 20.2 1l-1.3 11.8c-6.2-.6-12.6-.9-19-1V1.1z"/></symbol><symbol viewBox="0 0 634 634" id="pulse_item12"><path fill="#753E91" d="M600.2 222.4c-3-9-6.4-17.9-10.4-26.5l16.2-7.3c4.1 9.2 7.7 18.7 11 28.3l-16.8 5.5z"/><path fill="#143672" d="M60.7 131.7c5.9-8.1 12.2-16 19-23.7L93 119.8c-6.3 7.2-12.3 14.7-17.9 22.3l-14.4-10.4zM27.6 189c4.1-9.2 8.7-18.3 13.6-27.1l15.4 8.7c-4.7 8.4-9 16.9-12.8 25.5L27.6 189zM2.2 284.7c1-10 2.5-20 4.6-30l17.4 3.6c-1.9 9.4-3.3 18.7-4.3 28.3l-17.7-1.9zM.5 317.8c0-10.1.4-20.2 1.4-30.3l17.6 1.8c-.9 9.4-1.4 19-1.4 28.5H.5zM7.5 383.6c-2.1-10-3.7-19.9-4.9-30l17.6-1.9c1.1 9.4 2.6 18.8 4.6 28.1l-17.3 3.8z"/><path fill="#EECD17" d="M27.9 446.5c-4.1-9.3-7.7-18.7-11-28.3l16.9-5.6c3 9 6.5 17.9 10.4 26.5l-16.3 7.4z"/><path fill="#143672" d="M42.9 476c-5.1-8.8-9.8-17.8-13.9-27l16.2-7.3c3.9 8.6 8.2 17.1 13 25.3l-15.3 9zM588.8 193.2c-4-8.6-8.3-17.1-13.1-25.3L591 159c5.1 8.9 9.8 17.8 13.9 27l-16.1 7.2zM613.8 283.3c-1.1-9.4-2.6-18.8-4.5-28.1l17.4-3.8c2.1 9.9 3.7 19.9 4.9 30l-17.8 1.9zM614.4 345.8c.9-9.4 1.3-19 1.3-28.5l17.7-.1c0 10.1-.4 20.2-1.4 30.3l-17.6-1.7zM602.1 407.1c2.9-9.1 5.2-18.3 7.2-27.5l17.4 3.6c-2.1 9.9-4.7 19.7-7.7 29.4l-16.9-5.5z"/><path fill="#EECD17" d="M591.2 436.4c3.8-8.7 7.1-17.7 10-26.7l16.9 5.4c-3.1 9.6-6.6 19-10.7 28.4l-16.2-7.1z"/><path fill="#143672" d="M560.4 490.8c5.6-7.9 10.7-15.8 15.4-24l15.4 8.8c-5.1 8.7-10.5 17.2-16.4 25.5l-14.4-10.3z"/><path fill="#F2665E" d="M221.1 34.3c-9 3-17.9 6.4-26.5 10.4l-7.3-16.2c9.2-4.1 18.7-7.7 28.3-11l5.5 16.8z"/><path fill="#143672" d="M191.9 45.8c-8.6 3.9-17.1 8.2-25.3 13l-8.9-15.3c8.8-5.1 17.8-9.8 27-13.9l7.2 16.2zM282 20.8c-9.4 1.1-18.8 2.6-28.1 4.6L250 8c10-2.1 19.9-3.7 30-4.9l2 17.7zM344.5 20.2c-9.5-.9-19-1.4-28.5-1.4l-.1-17.7c10.1 0 20.2.4 30.3 1.4l-1.7 17.7zM405.7 32.5c-9.1-2.9-18.3-5.2-27.6-7.2L381.8 8c9.8 2.1 19.7 4.6 29.4 7.7l-5.5 16.8z"/><path fill="#EECD17" d="M435.1 43.4c-8.8-3.8-17.7-7.2-26.7-10l5.4-16.9c9.6 3.1 19 6.7 28.4 10.7l-7.1 16.2z"/><path fill="#143672" d="M489.5 74.1c-7.9-5.6-15.8-10.7-24-15.4l8.7-15.5c8.7 5.1 17.2 10.5 25.5 16.5l-10.2 14.4zM537 115.7c-6.5-7.1-13.3-13.8-20.3-20.1l11.8-13.3c7.5 6.8 14.6 13.9 21.5 21.4l-13 12zM117.4 95.3C124.6 89 132 83 139.6 77.4L129.2 63c-8.1 6-16 12.3-23.6 19.1l11.8 13.2zM62.6 505.9c6 8 12.4 15.8 19.3 23.4L95 517.4c-6.4-7.1-12.5-14.5-18.1-22l-14.3 10.5z"/><path fill="#F2665E" d="M224.2 601.3c-9-2.9-17.9-6.2-26.6-10l-7.1 16.2c9.3 4 18.8 7.5 28.4 10.7l5.3-16.9z"/><path fill="#143672" d="M194.9 590.2c-8.6-3.8-17.2-8-25.5-12.7l-8.7 15.4c8.9 4.9 17.9 9.6 27.1 13.6l7.1-16.3zM285.2 614.1c-9.5-1-18.8-2.4-28.2-4.2l-3.5 17.4c10 2 19.9 3.5 30 4.5l1.7-17.7zM347.7 613.9c-9.4 1-18.9 1.6-28.4 1.7l.1 17.7c10.1-.1 20.2-.7 30.3-1.8l-2-17.6zM408.8 600.9c-9 3-18.2 5.4-27.5 7.5l3.9 17.3c9.8-2.2 19.6-4.9 29.3-8l-5.7-16.8z"/><path fill="#EECD17" d="M438 589.7c-8.7 3.9-17.6 7.3-26.6 10.3l5.6 16.8c9.6-3.2 19-6.9 28.3-11l-7.3-16.1z"/><path fill="#143672" d="M492.1 558.2c-7.8 5.7-15.7 10.9-23.8 15.7l9 15.3c8.6-5.2 17.1-10.7 25.3-16.7l-10.5-14.3zM539 516.1c-6.4 7.2-13.1 13.9-20 20.4l11.9 13.1c7.3-6.8 14.4-14.1 21.3-21.7L539 516.1zM119.7 541.6c7.3 6.3 14.7 12.2 22.4 17.6l-10.2 14.5c-8.1-5.8-16.1-12.1-23.8-18.8l11.6-13.3z"/></symbol><symbol viewBox="0 0 755 755" id="pulse_item13"><path fill="#52C0A7" d="M726.1 448.7c2.3-11 4.1-22.2 5.2-33.5l21 2.1c-1.3 12-3.2 23.9-5.6 35.6l-20.6-4.2z"/><path fill="#143672" d="M736.1 261.6c3.7 11.5 6.9 23.2 9.4 34.9l-20.6 4.4c-2.5-10.9-5.4-21.8-8.9-32.7l20.1-6.6zM704.3 189.6c6 10.4 11.4 21.1 16.4 32.2l-19.2 8.6c-4.7-10.4-9.9-20.5-15.4-30.2l18.2-10.6zM682.9 156.6c7 9.7 13.7 19.8 19.7 30.2l-18.2 10.6c-5.7-9.8-11.9-19.3-18.5-28.4l17-12.4zM52.4 188.8c6-10.5 12.5-20.5 19.5-30.3L89 170.8c-6.6 9.2-12.7 18.7-18.4 28.5l-18.2-10.5zM20.2 260.6c3.7-11.5 8.1-22.8 12.9-33.7l19.3 8.5c-4.6 10.4-8.6 20.9-12 31.7l-20.2-6.5z"/><path fill="#52C0A7" d="M3.7 337.5c1.3-12 3.2-23.9 5.6-35.6l20.7 4.3c-2.3 11-4.1 22.2-5.2 33.5l-21.1-2.2z"/><path fill="#143672" d="M1.5 376.9c0-12.2.6-24.1 1.8-36.1l21 2.1c-1.1 11.2-1.7 22.5-1.7 33.8l-21.1.2zM731.7 411.9c1.1-11.2 1.7-22.5 1.7-33.9l21-.1c0 12.1-.6 24.1-1.8 36.1l-20.9-2.1zM703.6 519.5c4.6-10.4 8.6-20.9 12-31.7l20 6.5c-3.7 11.5-8.1 22.8-12.9 33.7l-19.1-8.5zM68.7 554.8c5.7 9.9 11.8 19.4 18.3 28.6l-17.1 12.3c-6.9-9.8-13.4-19.9-19.5-30.4l18.3-10.5zM40.8 489.8c3.6 10.9 7.7 21.4 12.2 31.6L33.8 530c-4.8-10.9-9.2-22.2-13-33.7l20-6.5z"/><path fill="#753E91" d="M9.7 457.3c-2.6-11.9-4.6-23.8-6-35.6l21-2.5c1.4 11.1 3.2 22.3 5.7 33.4l-20.7 4.7z"/><path fill="#143672" d="M667 583.8c6.6-9.3 12.7-18.9 18.3-28.6l18.4 10.4c-6 10.4-12.4 20.5-19.4 30.4L667 583.8z"/><path fill="rgba(238, 205, 23, 0.3)" d="M448.4 29.5c-11-2.3-22.3-4.1-33.6-5.2l2.1-21c12 1.3 23.9 3.2 35.6 5.6l-4.1 20.6z"/><path fill="#143672" d="M261.3 19.4c11.5-3.7 23.2-6.9 34.9-9.4l4.4 20.7c-10.9 2.4-21.8 5.4-32.7 8.9l-6.6-20.2zM189.3 51.3c10.4-6 21-11.5 32.2-16.5l8.6 19.2c-10.4 4.7-20.5 9.9-30.2 15.4l-10.6-18.1z"/><path fill="#52C0A7" d="M156.2 72.7c9.7-7 19.8-13.7 30.2-19.7L197 71.2c-9.8 5.7-19.3 12-28.4 18.5l-12.4-17z"/><path fill="#143672" d="M411.6 23.9c-11.2-1.1-22.5-1.7-33.9-1.7l-.1-21c12.1 0 24.1.6 36 1.8l-2 20.9zM519.1 51.9c-10.4-4.5-20.9-8.6-31.7-12l6.5-20c11.4 3.7 22.7 8.1 33.7 12.9l-8.5 19.1zM583.4 88.5c-9.2-6.6-18.9-12.7-28.5-18.3l10.4-18.4c10.4 6 20.5 12.5 30.4 19.5l-12.3 17.2zM631.7 100.3c8.8 8.1 17.4 16.7 25.4 25.7l-15.7 14c-7.6-8.4-15.6-16.5-23.8-24.1l14.1-15.6zM124.2 99.3c-8.8 8.1-17.3 16.7-25.4 25.7l15.7 14.1c7.6-8.4 15.6-16.5 23.9-24.1l-14.2-15.7z"/><path fill="#EECD17" d="M451.9 725.4c-11 2.4-22.2 4.2-33.5 5.5l2.3 21c12-1.4 23.9-3.4 35.6-5.9l-4.4-20.6z"/><path fill="#143672" d="M264.9 737.2c11.6 3.6 23.2 6.7 35 9.1l4.3-20.7c-11-2.3-21.9-5.2-32.8-8.5l-6.5 20.1zM192.7 706.1c10.4 5.9 21.2 11.3 32.3 16.1l8.4-19.3c-10.4-4.6-20.6-9.6-30.3-15.1l-10.4 18.3z"/><path fill="#52C0A7" d="M159.4 685c9.8 6.9 19.9 13.4 30.4 19.4l10.4-18.3c-9.8-5.6-19.4-11.8-28.6-18.2L159.4 685z"/><path fill="#143672" d="M415.2 731.3c-11.2 1.2-22.5 1.9-33.8 2l.1 21c12.1-.1 24.1-.8 36-2.1l-2.3-20.9zM522.5 702.2c-10.3 4.7-20.8 8.8-31.5 12.4l6.7 20c11.4-3.8 22.7-8.3 33.6-13.2l-8.8-19.2zM586.4 665c-9.2 6.6-18.8 12.9-28.4 18.5l10.5 18.3c10.3-6.1 20.4-12.7 30.2-19.8l-12.3-17zM634.6 652.7c8.7-8.2 17.2-16.9 25.1-25.9l-15.8-13.9c-7.5 8.5-15.4 16.7-23.6 24.3l14.3 15.5zM127.1 658.7c-8.9-8-17.5-16.5-25.6-25.4L117 619c7.6 8.4 15.7 16.3 24.1 23.9l-14 15.8z"/></symbol><symbol viewBox="0 0 911 911" id="pulse_item14"><path fill="#753E91" d="M667.1 81.3C655.2 74.6 643 68.4 630.4 63l10.2-23.4C654 45.4 667 52 679.7 59.1l-12.6 22.2z"/><path fill="#143672" d="M3.2 504.6C1.7 490.3.8 475.7.7 461l25.5-.2c.2 13.8 1 27.5 2.4 41l-25.4 2.8zM23.1 597.8c-4.4-13.8-8.4-27.9-11.6-42.2l24.9-5.5c3 13.4 6.6 26.7 10.8 39.5l-24.1 8.2zM118.3 761.5c-9.8-10.8-19-22-27.7-33.8l20.5-15.1c8.1 11 16.9 21.5 26 31.7l-18.8 17.2zM189.2 825.1c-11.8-8.6-23.1-17.7-34.1-27.3l16.9-19.1c10.3 9 20.9 17.6 32 25.7l-14.8 20.7z"/><path fill="#EECD17" d="M271.7 872.7c-13.3-5.9-26.3-12.5-39.1-19.6l12.6-22.2c11.9 6.7 24.2 12.8 36.7 18.4l-10.2 23.4z"/><path fill="#143672" d="M740.3 133.3c-10.3-9-20.9-17.6-32-25.7l14.9-20.8c11.8 8.6 23.1 17.7 34.1 27.3l-17 19.2zM801.2 199.5c-8.1-11-16.9-21.5-26-31.7l18.8-17.1c9.8 10.8 19 22 27.7 33.8l-20.5 15zM847.2 276.8c-5.7-12.5-12-24.6-18.9-36.4l22-12.8c7.2 12.5 14.1 25.5 20.1 38.8l-23.2 10.4zM883.4 406.4c-1.6-13.7-3.8-27.2-6.7-40.5l25-5.5c2.9 14.2 5.3 28.5 7.1 43.1l-25.4 2.9z"/><path fill="#F2665E" d="M80.7 246c-6.7 11.9-12.9 24.1-18.4 36.6l-23.4-10.2c5.9-13.3 12.5-26.3 19.6-39.1L80.7 246z"/><path fill="#143672" d="M132.6 172.7c-9 10.3-17.5 20.9-25.7 32l-20.8-14.9c8.6-11.8 17.7-23.1 27.4-34.1l19.1 17zM198.9 111.8c-11 8.1-21.5 16.9-31.7 26L150 119c10.8-9.8 22-19 33.8-27.7l15.1 20.5zM276.1 65.9c-12.5 5.7-24.6 12-36.3 18.9l-12.9-22c12.5-7.2 25.5-14.1 38.8-20.1l10.4 23.2zM28.6 411.2c1.5-13.8 3.7-27.3 6.5-40.5l-25-5.4c-2.9 14.2-5.2 28.5-6.8 43.1l25.3 2.8zM708.3 803.5c-11 8.1-22.4 15.6-34.2 22.7l12.9 22c12.5-7.5 24.6-15.5 36.5-24.2l-15.2-20.5zM774.9 743.1c-9.1 10.2-18.7 19.9-28.8 29.3l17.2 18.8c10.7-9.9 21-20.2 30.7-31.2l-19.1-16.9zM827.6 670.2c-6.8 11.9-14.2 23.4-22.1 34.5l20.8 14.8c8.4-11.8 16.3-24.2 23.6-36.8l-22.3-12.5z"/><path fill="#EECD17" d="M847.9 630.1c-5.6 12.6-11.7 24.9-18.4 36.7l22.2 12.5c7.1-12.7 13.6-25.6 19.5-39l-23.3-10.2z"/><path fill="#143672" d="M875.4 544.4c-2.8 13.6-6.3 26.8-10.3 39.8l24.3 7.7c4.2-13.8 7.9-27.9 10.9-42.3l-24.9-5.2zM884.9 454c.1 13.8-.5 27.5-1.8 41l25.4 2.5c1.2-14.4 1.8-28.9 1.8-43.6l-25.4.1zM316.2 889.6c-13.9-4.6-27.6-9.6-40.9-15.4l10.2-23.4c12.5 5.4 25.3 10.3 38.4 14.5l-7.7 24.3zM626.7 61.2c-12.5-5.3-25.3-10.3-38.4-14.5l7.7-24.3c14 4.6 27.7 9.6 41 15.4l-10.3 23.4zM405.7 29.6c-13.7 1.6-27.2 3.8-40.5 6.7l-5.5-25c14.2-2.9 28.5-5.3 43.1-7.1l2.9 25.4zM496.6 28.3c-13.8-1.3-27.4-1.9-41-1.9L455.4.9c14.4 0 29 .8 43.6 2.1l-2.4 25.3zM366.1 902.6c14.1 2.8 28.5 5 43.2 6.4l2.4-25.4c-13.7-1.4-27.3-3.5-40.6-6.1l-5 25.1z"/><path fill="#F2665E" d="M630.7 848.8c-12.5 5.6-25.1 10.7-38.1 15l8.1 24.2c13.8-4.7 27.3-10.1 40.7-16l-10.7-23.2z"/><path fill="#143672" d="M588.7 865.1c-12.9 4.2-26.1 8-39.5 11l5.6 25c14.3-3.3 28.3-7.1 42.1-11.7l-8.2-24.3zM461.5 885.7c13.8-.3 27.5-1.2 40.9-2.8l3.1 25.3c-14.3 1.6-28.9 2.6-43.6 2.9l-.4-25.4z"/></symbol><symbol viewBox="0 0 1081 1081" id="pulse_item15"><path fill="#52C0A7" d="M983.8 278.4c-8.2-14-17.1-27.7-26.8-40.9l24.5-18c10.3 14.1 19.6 28.6 28.4 43.4l-26.1 15.5z"/><path fill="#143672" d="M48.2 758.1c-7.1-15.8-13.3-32.1-18.8-48.4l28.8-9.5c5.1 15.5 11 30.6 17.7 45.5l-27.7 12.4z"/><path fill="#52C0A7" d="M104.7 856.3c-10.3-14.1-19.6-28.6-28.4-43.5l26.2-15.3c8.2 14 17.1 27.7 26.7 40.9l-24.5 17.9z"/><path fill="#143672" d="M954.2 233.7c-9.6-13-19.9-25.7-30.9-37.8l22.4-20.4c11.7 12.9 22.6 26.3 32.9 40.2l-24.4 18zM1028 375.7c-5.1-15.5-11-30.6-17.7-45.5l27.7-12.4c7.1 15.8 13.3 32.1 18.7 48.4l-28.7 9.5zM1050.9 479.7c-1.9-16.2-4.6-32.4-8-48.1l29.6-6.6c3.6 16.8 6.5 34 8.5 51.2l-30.1 3.5zM73.2 268c8.8-15.1 18.1-29.7 28.2-43.7l24.7 17.7c-9.4 13.2-18.1 26.8-26.4 41l-26.5-15zM27 371.4c5.3-16.4 11.4-32.6 18.5-48.6l27.7 12.3c-6.5 15-12.4 30.3-17.4 45.5L27 371.4zM3.7 485.6c-1.6 17.1-2.5 34.5-2.4 51.9l30.3-.1c0-16.3.8-32.7 2.3-48.8l-30.2-3zM924.1 880.2c-10.8 12.1-22.2 23.7-34.2 34.8l20.4 22.4c12.9-11.8 25-24.1 36.5-37l-22.7-20.2zM1010.6 745.6c-6.5 14.9-13.7 29.5-21.8 43.6l26.4 14.9c8.5-15.1 16.2-30.7 23.1-46.5l-27.7-12zM1043.1 644.2c-3.4 16-7.6 31.9-12.4 47.2l28.9 9.4c5.1-16.5 9.6-33.2 13.2-50.3l-29.7-6.3zM710.6 22.7c16.4 5.3 32.6 11.4 48.6 18.5L747 69c-15-6.5-30.3-12.4-45.5-17.4l9.1-28.9zM655.8 8c16.8 3.6 33.7 8 50.2 13.3l-9.2 28.9c-15.5-4.9-31.4-9.1-47.2-12.4L655.8 8zM291.3 983.1c14.4 8.1 28.8 15.5 43.5 22l-12.2 27.7c-15.6-7-31.2-14.8-46.4-23.5l15.1-26.2z"/><path fill="#753E91" d="M226.6 978.5c-14.2-10.2-27.8-21-40.8-32.3l20.1-22.8c12.2 10.6 24.8 20.7 38.3 30.3l-17.6 24.8z"/><path fill="#EECD17" d="M282.8 98.3c-14 8.2-27.7 17.1-40.9 26.8l-18-24.5C238 90.3 252.6 81 267.4 72.2l15.4 26.1z"/><path fill="#143672" d="M238.1 127.9c-13 9.6-25.6 19.9-37.8 30.9l-20.4-22.4c12.9-11.7 26.3-22.6 40.2-32.9l18 24.4zM380.1 54.1c-15.5 5.1-30.6 11-45.5 17.7l-12.4-27.7c15.8-7.1 32.1-13.3 48.4-18.7l9.5 28.7zM484 31.2c-16.2 1.9-32.4 4.6-48.1 8l-6.6-29.6C446 6 463.2 3.1 480.5 1l3.5 30.2zM769.3 1031.4c15.8-7.3 31.3-15.3 46.1-24L800 981.2c-14 8.1-28.4 15.6-43.2 22.5l12.5 27.7zM902.5 130.2c-12.9-11.4-26.5-22.1-40.8-32.3l-17.6 24.7c13.3 9.6 26.1 19.7 38.2 30.3l20.2-22.7z"/><path fill="#52C0A7" d="M606.1 1077.4c17.1-2 34.3-4.9 51.2-8.6l-6.5-29.6c-16 3.4-32.1 6.1-48.1 8l3.4 30.2z"/><path fill="#143672" d="M546.2 1080.4c-17.2 0-34.6-.7-51.9-2.4l2.9-30.2c16.2 1.5 32.6 2.3 48.8 2.3l.2 30.3z"/></symbol><symbol viewBox="0 0 148 148" id="pulse_item2"><path fill="#143672" d="M73.2 148c-1.9 0-4-.1-5.9-.3l1.2-11c1.6.2 3.1.3 4.7.3v11zM88.5 146.5c-1.9.4-3.9.7-5.8.9l-1.2-10.9c1.6-.2 3.1-.4 4.7-.8l2.3 10.8zM95.9 144.7c-1.9.6-3.8 1.1-5.6 1.5L88 135.4c1.5-.3 3-.8 4.6-1.3l3.3 10.6zM103.1 142c-1.8.8-3.6 1.5-5.5 2.1l-3.4-10.4c1.5-.5 3-1.1 4.4-1.7l4.5 10zM110 138.7c-1.7.9-3.4 1.8-5.2 2.7l-4.4-10c1.4-.7 2.9-1.3 4.2-2.2l5.4 9.5zM116.5 134.5c-1.6 1.1-3.2 2.2-5 3.2l-5.5-9.5c1.4-.8 2.7-1.7 4-2.6l6.5 8.9zM122.5 129.7c-1.4 1.3-3 2.5-4.6 3.7l-6.5-8.9c1.3-.9 2.5-1.9 3.7-2.9l7.4 8.1zM128.1 124.3c-1.4 1.4-2.7 2.9-4.1 4.1l-7.3-8.2c1.2-1.1 2.3-2.2 3.4-3.4l8 7.5zM132.9 118.4c-1.2 1.6-2.4 3.1-3.7 4.5l-8.2-7.3c1-1.2 2-2.4 2.9-3.7l9 6.5zM137.3 112c-1 1.7-2.1 3.4-3.2 5l-9-6.5c.9-1.3 1.8-2.6 2.6-4l9.6 5.5zM140.8 105.3c-.9 1.8-1.7 3.5-2.7 5.2l-9.5-5.5c.8-1.4 1.5-2.8 2.2-4.2l10 4.5zM143.6 98.1c-.6 1.9-1.3 3.7-2.1 5.5l-10-4.5c.6-1.4 1.2-2.9 1.7-4.4l10.4 3.4zM145.7 90.7c-.4 1.9-.9 3.8-1.5 5.6L133.8 93c.4-1.5.8-3 1.3-4.6l10.6 2.3zM147 83.1c-.3 1.9-.5 3.9-.9 5.8l-10.8-2.3c.3-1.5.6-3.1.8-4.7l10.9 1.2zM147.5 75.4c0 1.9-.2 4-.4 5.9l-10.9-1.2c.1-1.6.3-3.1.3-4.7h11zM147.2 67.8c.2 1.9.3 3.9.4 5.9h-11c0-1.6-.1-3.2-.3-4.7l10.9-1.2zM146.1 60.1c.4 1.9.6 3.9.9 5.8l-10.9 1.2c-.2-1.6-.4-3.1-.8-4.7l10.8-2.3zM144.2 52.7c.6 1.8 1.1 3.8 1.5 5.6L135 60.6c-.3-1.5-.8-3-1.3-4.6l10.5-3.3zM141.6 45.5c.8 1.8 1.5 3.6 2.1 5.4l-10.4 3.4c-.5-1.5-1.1-2.9-1.7-4.4l10-4.4zM138.1 38.6c.9 1.7 1.9 3.5 2.7 5.2l-10 4.5c-.7-1.4-1.4-2.9-2.2-4.2l9.5-5.5zM134.1 32.1c1.1 1.6 2.2 3.2 3.2 5l-9.5 5.5c-.8-1.4-1.7-2.7-2.6-4l8.9-6.5zM129.3 26.1c1.3 1.4 2.5 3 3.7 4.6l-8.9 6.5c-.9-1.3-1.9-2.5-2.9-3.7l8.1-7.4zM123.8 20.6c1.4 1.3 2.9 2.7 4.1 4.1l-8.2 7.3c-1.1-1.2-2.2-2.3-3.4-3.4l7.5-8zM118 15.6c1.6 1.2 3.1 2.4 4.6 3.7l-7.3 8.2c-1.2-1-2.4-2-3.7-2.9l6.4-9zM111.5 11.4c1.7 1 3.4 2.1 5 3.2l-6.5 8.9c-1.3-.9-2.6-1.8-4-2.6l5.5-9.5zM104.8 7.8c1.8.9 3.5 1.7 5.2 2.7l-5.5 9.5c-1.3-.8-2.8-1.5-4.2-2.2l4.5-10zM97.6 4.9c1.9.6 3.7 1.4 5.5 2.1l-4.4 10c-1.4-.6-3-1.2-4.4-1.7l3.3-10.4zM90.3 2.9c1.9.4 3.8.9 5.6 1.5l-3.4 10.5c-1.5-.5-3-.9-4.6-1.3l2.4-10.7zM82.7 1.6c1.9.3 3.9.5 5.8.9l-2.3 10.8c-1.5-.3-3.1-.6-4.6-.8l1.1-10.9zM62 135.9c1.5.3 3.1.6 4.6.8l-1.2 11c-1.9-.3-3.9-.5-5.8-.9l2.4-10.9zM49.5 132c1.4.6 3 1.2 4.4 1.7l-3.4 10.4c-1.9-.6-3.7-1.3-5.5-2.1l4.5-10zM43.6 129.1c1.4.8 2.8 1.5 4.2 2.2l-4.5 10c-1.8-.9-3.5-1.7-5.2-2.7l5.5-9.5zM38.1 125.6c1.3.9 2.6 1.8 4 2.6l-5.5 9.5c-1.7-1-3.4-2.1-5-3.2l6.5-8.9zM33 121.6c1.2 1 2.4 2 3.7 2.9l-6.5 8.9c-1.6-1.2-3.1-2.5-4.6-3.7l7.4-8.1zM28.3 117c1.1 1.2 2.2 2.3 3.4 3.4l-7.3 8.2c-1.4-1.4-2.9-2.7-4.1-4.2l8-7.4zM24.1 112c.9 1.3 1.9 2.5 2.9 3.7l-8.2 7.3c-1.3-1.4-2.5-3-3.7-4.6l9-6.4zM17.4 100.8c.7 1.4 1.4 2.9 2.2 4.2l-9.5 5.5c-.9-1.7-1.9-3.5-2.7-5.2l10-4.5zM12.1 81.9c.2 1.6.4 3.1.8 4.7L2 88.9c-.4-1.9-.6-3.9-.9-5.8l11-1.2zM11.6 75.4c0 1.6.1 3.2.3 4.7l-11 1.3c-.2-1.9-.3-3.9-.3-5.9h11zM11.9 68.9c-.1 1.6-.3 3.1-.3 4.7H.7c0-2 .2-4 .3-5.9l10.9 1.2zM12.8 62.5c-.3 1.5-.6 3.1-.8 4.7L1.1 65.9c.3-1.9.5-3.8.9-5.8l10.8 2.4zM14.4 56.1c-.5 1.5-.9 3-1.3 4.6L2.4 58.3c.4-1.9.9-3.8 1.5-5.6l10.5 3.4zM19.6 44.1c-.8 1.4-1.5 2.8-2.2 4.2l-10-4.5c.8-1.8 1.7-3.5 2.7-5.2l9.5 5.5zM27 33.4c-1 1.2-2 2.4-2.9 3.7l-8.9-6.5c1.2-1.6 2.5-3.1 3.7-4.6l8.1 7.4zM31.6 28.8c-1.2 1.1-2.3 2.2-3.4 3.4L20 24.9c1.4-1.4 2.7-2.9 4.1-4.1l7.5 8zM36.7 24.6c-1.3.9-2.5 1.9-3.7 2.9l-7.3-8.2c1.4-1.3 3-2.5 4.6-3.7l6.4 9zM47.9 17.8c-1.4.7-2.9 1.4-4.2 2.2l-5.4-9.5c1.7-.9 3.4-1.9 5.2-2.7l4.4 10zM53.9 15.4c-1.5.5-2.9 1.1-4.4 1.7L45.1 7c1.8-.8 3.6-1.5 5.5-2.1l3.3 10.5zM60.2 13.6c-1.5.4-3 .8-4.6 1.3L52.3 4.4c1.9-.6 3.8-1.1 5.7-1.5l2.2 10.7zM66.7 12.5c-1.6.2-3.1.4-4.7.8L59.7 2.5c1.9-.4 3.9-.6 5.8-.9l1.2 10.9zM73.2 12.1c-1.6 0-3.2.1-4.7.3l-1.3-11c1.9-.2 3.9-.3 5.9-.4v11.1z"/><path fill="#E6C948" d="M42.1 21c-1.4.8-2.7 1.7-4 2.6l-6.5-8.9c1.6-1.1 3.2-2.2 5-3.2l5.5 9.5z"/><path fill="#74568D" d="M80.9 147.7c-1.9.2-3.9.3-5.9.3v-11c1.6 0 3.2-.1 4.7-.3l1.2 11zM16.7 50c-.6 1.4-1.2 2.9-1.7 4.4L4.6 51c.6-1.9 1.4-3.7 2.1-5.5l10 4.5zM23 38.6c-.9 1.3-1.8 2.6-2.6 3.9l-9.5-5.4c1-1.7 2.1-3.4 3.2-5l8.9 6.5zM75 1.2c1.9 0 4 .1 5.9.3l-1.2 11c-1.6-.2-3.1-.3-4.7-.3v-11z"/><path fill="#DA6D67" d="M55.6 134.2c1.5.5 3 .9 4.6 1.3l-2.3 10.8c-1.9-.4-3.8-.9-5.6-1.5l3.3-10.6zM14.9 94.7c.5 1.5 1.1 3 1.7 4.4l-10 4.5c-.8-1.8-1.5-3.6-2.1-5.5l10.4-3.4z"/><path fill="#59B39F" d="M20.5 106.5c.9 1.4 1.7 2.7 2.6 4l-8.9 6.5c-1.1-1.6-2.2-3.2-3.2-5l9.5-5.5zM13.2 88.4c.3 1.5.8 3 1.3 4.6L4 96.3c-.6-1.9-1.1-3.8-1.5-5.6l10.7-2.3z"/></symbol><symbol viewBox="0 0 178 178" id="pulse_item3"><path fill="#143672" d="M88.1 177.4c-2.5 0-5-.1-7.4-.4l1.2-11.5c2 .1 4.1.3 6.2.3v11.6zM97.3 177c-2.4.3-4.9.3-7.4.4v-11.6c2.1 0 4.2-.2 6.2-.3l1.2 11.5zM106.5 175.6c-2.4.5-4.9.8-7.3 1.2l-1.3-11.5c2.1-.3 4.1-.6 6.1-.9l2.5 11.2zM115.4 173.3c-2.3.8-4.7 1.4-7.1 2l-2.5-11.4c2-.4 4.1-1 6-1.6l3.6 11zM124.1 170.1c-2.3 1-4.6 1.9-6.9 2.7l-3.6-11c1.9-.7 3.9-1.4 5.8-2.3l4.7 10.6zM132.4 166c-2.2 1.2-4.4 2.4-6.7 3.4l-4.7-10.6c1.9-.9 3.7-1.9 5.6-2.9l5.8 10.1zM154.1 148.8c-1.7 1.8-3.5 3.6-5.2 5.2l-7.7-8.6c1.5-1.4 3-2.9 4.4-4.4l8.5 7.8zM159.9 141.7c-1.5 2-3 3.9-4.7 5.8l-8.6-7.7c1.3-1.5 2.7-3.2 3.9-4.8l9.4 6.7zM165.1 134c-1.3 2.1-2.6 4.2-4 6.2l-9.4-6.8c1.2-1.7 2.4-3.5 3.4-5.2l10 5.8zM169.4 125.8c-1 2.3-2.2 4.5-3.4 6.7l-10-5.8c1-1.8 1.9-3.6 2.8-5.6l10.6 4.7zM172.7 117.1c-.8 2.4-1.7 4.7-2.7 6.9l-10.6-4.7c.8-1.9 1.6-3.9 2.3-5.8l11 3.6zM175.3 108.3c-.5 2.5-1.2 4.8-1.9 7.2l-11-3.6c.6-1.9 1.2-3.9 1.6-6l11.3 2.4zM176.8 99.2c-.3 2.4-.7 4.9-1.2 7.3l-11.4-2.4c.4-2 .8-4.1 1-6.2l11.6 1.3zM177.4 89.9c0 2.5-.1 5-.4 7.4l-11.5-1.2c.1-2 .3-4.1.3-6.2h11.6zM177 80.7c.3 2.4.3 4.9.4 7.4h-11.6c0-2.1-.2-4.2-.3-6.2l11.5-1.2zM175.6 71.6c.5 2.4.9 4.9 1.2 7.3l-11.5 1.2c-.3-2.1-.6-4.1-.9-6.1l11.2-2.4zM173.3 62.6c.8 2.3 1.3 4.7 1.9 7.1l-11.4 2.4c-.4-2-1-4-1.6-6l11.1-3.5zM170.1 54c1 2.3 1.9 4.6 2.7 6.9l-11 3.6c-.7-1.9-1.4-3.9-2.3-5.8l10.6-4.7zM166 45.6c1.2 2.2 2.4 4.4 3.4 6.7L158.7 57c-.8-1.8-1.9-3.7-2.9-5.6l10.2-5.8zM161 37.9c1.4 2 2.8 4.1 4 6.2l-10 5.8c-1.1-1.8-2.2-3.5-3.4-5.2l9.4-6.8zM155.2 30.6c1.6 1.9 3.2 3.8 4.7 5.8l-9.4 6.8c-1.3-1.7-2.5-3.3-3.9-4.8l8.6-7.8zM148.8 24c1.9 1.7 3.6 3.5 5.2 5.2l-8.6 7.7c-1.4-1.5-2.9-3-4.4-4.4l7.8-8.5zM141.6 18.1c2 1.5 4 3 5.8 4.7l-7.7 8.6c-1.5-1.3-3.2-2.7-4.8-3.9l6.7-9.4zM125.7 8.7c2.3 1 4.5 2.2 6.7 3.4l-5.8 10c-1.8-1-3.7-1.9-5.6-2.9l4.7-10.5zM117.1 5.3c2.4.7 4.8 1.7 6.9 2.7l-4.7 10.6c-1.9-.9-3.9-1.6-5.8-2.3l3.6-11zM108.3 2.8c2.4.5 4.8 1.1 7.1 1.9l-3.6 11c-1.9-.6-3.9-1.2-6-1.6l2.5-11.3zM99.1 1.3c2.5.3 5 .7 7.3 1.2L104 13.8c-2-.4-4.1-.8-6.1-1l1.2-11.5zM73.9 164.3c2 .4 4.1.8 6.1 1l-1.1 11.5c-2.5-.3-5-.7-7.3-1.2l2.3-11.3zM51.4 155.9c1.8 1 3.6 1.9 5.6 2.9l-4.7 10.6c-2.3-1-4.5-2.2-6.7-3.4l5.8-10.1zM44.7 151.6c1.7 1.2 3.4 2.4 5.2 3.4l-5.8 10c-2.1-1.3-4.2-2.6-6.2-4.1l6.8-9.3zM38.4 146.6c1.5 1.3 3.2 2.7 4.8 3.9l-6.8 9.4c-2-1.5-4-3-5.8-4.7l7.8-8.6zM32.7 141c1.4 1.5 2.8 3 4.4 4.4l-7.7 8.6c-1.9-1.7-3.7-3.4-5.2-5.2l8.5-7.8zM27.5 134.9c1.3 1.7 2.5 3.3 4 4.8l-8.6 7.7c-1.6-1.9-3.2-3.8-4.7-5.8l9.3-6.7zM23.1 128.2c1.1 1.8 2.2 3.5 3.4 5.2l-9.4 6.8c-1.4-2-2.8-4.1-4.1-6.2l10.1-5.8zM19.3 121.1c.8 1.8 1.9 3.7 2.9 5.6l-10 5.8c-1.2-2.2-2.4-4.4-3.4-6.7l10.5-4.7zM14.1 105.9c.4 2 1 4.1 1.6 6l-11 3.6c-.8-2.4-1.3-4.7-1.9-7.2l11.3-2.4zM12.8 97.9c.3 2.1.6 4.2 1 6.2l-11.4 2.4c-.5-2.4-.9-4.9-1.2-7.3l11.6-1.3zM12.6 81.9c-.1 2-.3 4.1-.3 6.2H.6c0-2.5.1-5 .4-7.4l11.6 1.2zM13.8 73.9c-.4 2-.8 4.1-1 6.1L1.2 78.9c.3-2.4.7-4.9 1.2-7.3l11.4 2.3zM26.4 44.7c-1.2 1.7-2.4 3.5-3.4 5.2l-10-5.8c1.3-2.1 2.6-4.2 4.1-6.2l9.3 6.8zM31.4 38.4c-1.3 1.5-2.7 3.2-3.9 4.8l-9.4-6.8c1.5-2 3-4 4.7-5.8l8.6 7.8zM37 32.6c-1.5 1.4-3 2.9-4.4 4.4L24 29.2c1.7-1.8 3.4-3.6 5.2-5.2l7.8 8.6zM43.2 27.5c-1.7 1.3-3.3 2.5-4.8 3.9l-7.7-8.6c1.9-1.6 3.8-3.2 5.8-4.7l6.7 9.4zM49.8 23c-1.8 1.1-3.5 2.2-5.2 3.4l-6.8-9.3c2-1.4 4.1-2.8 6.2-4.1l5.8 10zM57 19.3c-1.9.8-3.7 1.8-5.6 2.9l-5.8-10c2.2-1.2 4.4-2.4 6.7-3.4L57 19.3zM64.4 16.3c-1.9.6-3.9 1.4-5.8 2.3L53.9 8c2.3-1 4.6-1.9 6.9-2.7l3.6 11zM72.2 14.1c-2 .4-4.1 1-6 1.6l-3.6-11c2.3-.8 4.7-1.3 7.1-1.9l2.5 11.3zM80.1 12.8c-2.1.3-4.1.6-6.1.9L71.5 2.3c2.4-.5 4.9-.8 7.3-1.1l1.3 11.6zM88.1 12.3c-2.1 0-4.1.1-6.2.3L80.7 1.1c2.4-.3 5-.3 7.4-.4v11.6zM89.9.7c2.5 0 5 .1 7.4.4l-1.2 11.5c-2-.1-4.1-.3-6.2-.3V.7z"/><path fill="#753E91" d="M134 13c2.1 1.3 4.2 2.6 6.2 4.1l-6.8 9.3c-1.7-1.1-3.4-2.3-5.2-3.4l5.8-10zM58.6 159.5c1.9.9 3.9 1.6 5.8 2.3l-3.6 11c-2.3-.8-4.7-1.7-6.9-2.7l4.7-10.6zM18.6 58.7c-.8 1.9-1.6 3.9-2.3 5.8l-11-3.6C6 58.5 7 56.2 8 54l10.6 4.7zM22.1 51.4c-1 1.8-1.9 3.6-2.9 5.6L8.6 52.3c1-2.3 2.2-4.5 3.4-6.7l10.1 5.8z"/><path fill="#F2665E" d="M66.2 162.3c1.9.6 3.9 1.2 6 1.6l-2.5 11.4c-2.4-.5-4.8-1.2-7.1-2l3.6-11zM16.3 113.6c.6 2 1.4 3.9 2.3 5.8L8 124.1c-1-2.3-1.9-4.6-2.7-6.9l11-3.6zM12.3 89.9c0 2.1.2 4.1.3 6.2L1 97.4C.7 95 .7 92.4.6 90h11.7z"/><path fill="#52C0A7" d="M140.2 161c-2 1.4-4.1 2.8-6.2 4.1l-5.8-10c1.8-1.1 3.5-2.2 5.2-3.4l6.8 9.3zM147.5 155.2c-1.8 1.6-3.8 3.2-5.8 4.7l-6.8-9.4c1.7-1.3 3.3-2.5 4.8-3.9l7.8 8.6zM15.8 66.2c-.6 1.9-1.2 3.9-1.6 6L2.8 69.7c.5-2.4 1.2-4.8 1.9-7.1l11.1 3.6z"/></symbol><symbol viewBox="0 0 207 207" id="pulse_item4"><path fill="#143672" d="M124.1 204.9c-2.9.6-5.9 1.1-8.9 1.4l-1.3-11.7c2.6-.4 5.1-.7 7.7-1.2l2.5 11.5zM134.5 202.2c-2.9.9-5.7 1.7-8.7 2.4l-2.4-11.5c2.5-.6 5.1-1.3 7.5-2l3.6 11.1zM154.3 193.7c-2.6 1.5-5.3 2.9-8 4.1l-4.8-10.8c2.4-1.1 4.7-2.3 6.9-3.5l5.9 10.2zM163.4 187.8c-2.4 1.8-4.9 3.4-7.5 4.9l-5.9-10.2c2.2-1.3 4.4-2.7 6.5-4.2l6.9 9.5zM171.8 181.1c-2.3 2-4.6 3.9-7 5.6l-6.9-9.5c2.1-1.5 4.2-3.2 6.1-4.9l7.8 8.8zM179.5 173.5c-2 2.2-4.1 4.3-6.3 6.3l-7.9-8.7c1.9-1.8 3.7-3.6 5.5-5.5l8.7 7.9zM186.4 165.2c-1.8 2.5-3.7 4.7-5.7 7l-8.7-7.8c1.7-1.9 3.4-4 4.9-6.1l9.5 6.9zM197.3 146.6c-1.3 2.7-2.6 5.4-4.1 8l-10.2-5.9c1.3-2.3 2.4-4.6 3.5-6.9l10.8 4.8zM201.3 136.6c-.9 2.9-2 5.6-3.2 8.4l-10.8-4.8c1-2.4 1.9-4.8 2.8-7.2l11.2 3.6zM204.2 126.2c-.7 3-1.4 5.8-2.4 8.7l-11.2-3.6c.8-2.4 1.4-4.9 2-7.5l11.6 2.4zM206 115.5c-.3 3-.8 6-1.4 8.9L193 122c.5-2.5.9-5.1 1.2-7.7l11.8 1.2zM206.6 104.8c0 3-.2 6-.5 9l-11.7-1.3c.3-2.5.4-5.2.4-7.7h11.8zM198.1 62.7c1.2 2.8 2.3 5.6 3.2 8.4l-11.2 3.6c-.8-2.4-1.8-4.9-2.8-7.2l10.8-4.8zM193.3 53.1c1.5 2.6 2.9 5.3 4.2 8l-10.8 4.8c-1.1-2.4-2.3-4.6-3.5-6.9l10.1-5.9zM187.5 44c1.8 2.4 3.4 5 4.9 7.5l-10.2 5.9c-1.3-2.2-2.7-4.4-4.2-6.5l9.5-6.9zM173.2 27.9c2.2 2 4.3 4.1 6.3 6.3l-8.7 7.9c-1.8-1.9-3.5-3.7-5.5-5.5l7.9-8.7zM164.8 21c2.4 1.8 4.7 3.7 7 5.6l-7.8 8.7c-1.9-1.7-4-3.4-6.1-4.9l6.9-9.4zM155.9 15c2.6 1.5 5.1 3.2 7.5 4.9l-6.9 9.6c-2.1-1.5-4.3-2.9-6.5-4.2l5.9-10.3zM146.3 10c2.7 1.3 5.4 2.6 8 4.1l-5.9 10.2c-2.3-1.3-4.6-2.5-6.9-3.5l4.8-10.8zM136.3 6.1c2.8.9 5.6 2 8.4 3.2L139.9 20c-2.4-1-4.8-1.9-7.2-2.8l3.6-11.1zM125.8 3.2c2.9.7 5.8 1.4 8.7 2.4l-3.6 11.2c-2.4-.8-4.9-1.4-7.5-2l2.4-11.6zM85.4 193.4c2.5.5 5.1.9 7.7 1.1l-1.3 11.7c-3-.3-6-.8-8.9-1.4l2.5-11.4zM76.1 191c2.4.8 4.9 1.4 7.5 2l-2.4 11.5c-2.9-.7-5.8-1.4-8.7-2.4l3.6-11.1zM58.6 183.4c2.3 1.3 4.6 2.4 6.9 3.5l-4.8 10.8c-2.7-1.3-5.4-2.6-8-4.1l5.9-10.2zM50.5 178.3c2.1 1.5 4.3 2.9 6.5 4.2l-5.9 10.2c-2.6-1.5-5.1-3.2-7.5-4.9l6.9-9.5zM43.1 172.3c1.9 1.7 3.9 3.4 6.1 4.9l-6.9 9.5c-2.4-1.8-4.7-3.7-7-5.6l7.8-8.8zM20.5 141.9c1.1 2.3 2.3 4.6 3.5 6.9l-10.2 5.9c-1.5-2.6-2.9-5.3-4.1-8l10.8-4.8zM16.9 133c.8 2.4 1.8 4.9 2.8 7.2L8.9 145c-1.2-2.7-2.3-5.6-3.2-8.4l11.2-3.6zM12.8 114.3c.3 2.6.7 5.1 1.2 7.7l-11.5 2.4c-.6-2.9-1.1-5.9-1.4-8.9l11.7-1.2zM12.2 104.8c0 2.6.2 5.2.4 7.7L.9 113.8c-.3-2.9-.4-6-.5-9h11.8zM12.5 95.2c-.3 2.5-.4 5.1-.4 7.7H.3c0-3 .2-6 .5-9l11.7 1.3zM14 85.8c-.5 2.5-.9 5.1-1.2 7.6L1.1 92.1c.4-3 .9-6 1.4-8.9L14 85.8zM16.3 76.5c-.8 2.4-1.4 5-2 7.5L2.7 81.5c.7-2.9 1.4-5.8 2.4-8.7l11.2 3.7zM29.1 50.9c-1.5 2.1-3 4.3-4.2 6.5l-10.2-5.9c1.5-2.6 3.2-5.1 4.9-7.5l9.5 6.9zM41.7 36.6c-1.9 1.8-3.7 3.6-5.5 5.4l-8.7-7.8c2-2.2 4.1-4.3 6.3-6.3l7.9 8.7zM49.1 30.5C47 32 44.9 33.7 43 35.3l-7.8-8.7c2.3-2 4.6-3.9 7-5.6l6.9 9.5zM65.5 20.8c-2.4 1.1-4.6 2.3-6.9 3.5l-5.9-10.2c2.6-1.5 5.3-2.9 8-4.1l4.8 10.8zM74.4 17.2c-2.4.9-4.8 1.8-7.2 2.8L62.4 9.2C65.1 8.1 68 7 70.8 6.1l3.6 11.1zM83.6 14.6c-2.5.6-5.1 1.3-7.5 2L72.5 5.4c2.9-.9 5.7-1.7 8.7-2.4l2.4 11.6zM102.6 12.5c-2.6 0-5.2.1-7.7.4L93.7 1.1c2.9-.3 6-.4 9-.5l-.1 11.9z"/><path fill="#EECD17" d="M57.1 25.2c-2.2 1.4-4.4 2.7-6.5 4.2l-6.9-9.5c2.4-1.8 5-3.4 7.5-4.9l5.9 10.2z"/><path fill="#753E91" d="M180.7 35.5c2 2.3 3.9 4.6 5.7 7l-9.5 6.9c-1.5-2.1-3.2-4.1-4.9-6.1l8.7-7.8zM115.2 1.4c3 .4 6 .9 8.9 1.4l-2.4 11.5c-2.5-.5-5.1-.9-7.7-1.2l1.2-11.7zM67.2 187.7c2.4 1 4.8 1.9 7.2 2.8l-3.6 11.2c-2.9-.9-5.7-2-8.4-3.2l4.8-10.8zM36.3 165.7c1.8 2 3.6 3.7 5.5 5.5L34 180c-2.2-2-4.3-4.2-6.3-6.3l8.6-8zM24.8 150.4c1.3 2.2 2.7 4.4 4.2 6.5l-9.5 6.9c-1.8-2.4-3.4-4.9-4.9-7.5l10.2-5.9zM14.3 123.7c.6 2.5 1.3 5.1 2 7.5l-11.2 3.6c-.9-2.8-1.7-5.7-2.4-8.7l11.6-2.4zM19.7 67.5c-1 2.4-1.9 4.8-2.8 7.2L5.7 71.2c.9-2.9 2-5.6 3.2-8.4l10.8 4.7zM93 13.1c-2.6.3-5.1.7-7.7 1.2L82.9 2.8c2.9-.6 5.9-1.1 8.9-1.4L93 13.1zM104.4.8c3 0 6 .1 9 .5L112.1 13c-2.5-.3-5.2-.4-7.8-.4V.8z"/><path fill="#F2665E" d="M144.6 198.5c-2.7 1.1-5.6 2.3-8.4 3.2l-3.6-11.2c2.4-.8 4.9-1.8 7.2-2.8l4.8 10.8z"/><path fill="#52C0A7" d="M206.2 94c.3 2.9.4 6 .5 9h-11.8c0-2.6-.2-5.2-.4-7.7l11.7-1.3zM204.6 83.3c.6 3 1.1 5.9 1.4 8.9l-11.7 1.3c-.4-2.6-.7-5.1-1.2-7.6l11.5-2.6zM24 58.9c-1.3 2.3-2.4 4.6-3.5 6.9L9.7 61.1c1.3-2.7 2.6-5.4 4.1-8L24 58.9z"/></symbol><symbol viewBox="0 0 237 237" id="pulse_item5"><path fill="#143672" d="M130.1 236.2c-3.4.4-7 .5-10.5.5v-11.8c3.1 0 6.2-.1 9.3-.5l1.2 11.8zM142.3 234.4c-3.5.6-6.9 1.3-10.5 1.6l-1.3-11.8c3.1-.3 6.2-.8 9.2-1.4l2.6 11.6zM176.9 221.4c-3 1.8-6.1 3.4-9.4 4.8l-4.8-10.8c2.9-1.3 5.6-2.7 8.2-4.2l6 10.2zM205.7 198.3c-2.4 2.6-4.9 5.1-7.4 7.5l-7.9-8.7c2.3-2.1 4.4-4.3 6.6-6.6l8.7 7.8zM213.6 188.8c-2.1 2.9-4.3 5.6-6.7 8.2l-8.7-7.9c2-2.3 4.1-4.7 5.9-7.2l9.5 6.9zM226 167.6c-1.4 3.2-3 6.3-4.8 9.4l-10.2-5.9c1.5-2.7 2.9-5.5 4.2-8.2l10.8 4.7zM230.6 156c-1.1 3.4-2.3 6.7-3.8 9.9l-10.8-4.8c1.3-2.9 2.4-5.7 3.4-8.7l11.2 3.6zM235.9 131.9c-.4 3.5-.9 7-1.7 10.5l-11.5-2.4c.6-3 1.1-6.1 1.4-9.2l11.8 1.1zM236.7 119.6c0 3.5-.3 7.1-.6 10.5l-11.8-1.3c.3-3 .4-6.2.5-9.3h11.9zM236.1 107.3c.4 3.4.5 7 .5 10.5h-11.8c0-3.1-.1-6.2-.5-9.3l11.8-1.2zM234.3 95c.7 3.4 1.3 6.9 1.6 10.4l-11.8 1.3c-.3-3.1-.8-6.2-1.4-9.2l11.6-2.5zM231.2 83.1c1.1 3.4 1.9 6.7 2.7 10.2l-11.5 2.4c-.7-3-1.5-6.1-2.4-9l11.2-3.6zM226.8 71.5c1.4 3.2 2.7 6.5 3.8 9.9L219.4 85c-1-2.9-2.1-5.9-3.4-8.7l10.8-4.8zM214.7 50.2c2 2.9 4 5.8 5.7 8.8l-10.2 5.9c-1.6-2.7-3.3-5.3-5.1-7.9l9.6-6.8zM167.5 11.3c3.2 1.4 6.3 3 9.5 4.8l-6 10.2c-2.7-1.5-5.5-3-8.2-4.2l4.7-10.8zM155.9 6.8c3.4 1.1 6.7 2.3 9.9 3.8L161 21.3c-2.8-1.3-5.7-2.4-8.7-3.4l3.6-11.1zM97.5 222.8c3 .6 6.1 1.1 9.2 1.4l-1.3 11.8c-3.5-.4-7-.9-10.5-1.7l2.6-11.5zM76.3 216.1c2.8 1.3 5.7 2.3 8.7 3.4l-3.6 11.2c-3.4-1.1-6.7-2.4-9.9-3.8l4.8-10.8zM66.3 211.1c2.7 1.5 5.5 2.9 8.3 4.2l-4.8 10.8c-3.2-1.4-6.3-3-9.5-4.8l6-10.2zM57 205.1c2.5 1.8 5.2 3.5 7.9 5.1L59 220.4c-3-1.8-6-3.7-8.9-5.7l6.9-9.6zM48.3 198.3c2.4 2 4.7 4 7.3 5.9l-6.9 9.5c-2.9-2.1-5.6-4.3-8.2-6.7l7.8-8.7zM33.3 181.9c1.9 2.5 3.8 4.9 5.9 7.2l-8.8 7.9c-2.3-2.6-4.6-5.4-6.6-8.2l9.5-6.9zM27.2 172.6c1.6 2.7 3.3 5.3 5.1 7.9l-9.5 6.9c-2-2.8-3.9-5.8-5.7-8.8l10.1-6zM22 162.8c1.3 2.9 2.7 5.6 4.2 8.3L16 176.9c-1.8-3-3.3-6.1-4.8-9.4l10.8-4.7zM17.9 152.4c1 3 2.1 5.9 3.4 8.7l-10.8 4.8c-1.4-3.2-2.7-6.5-3.8-9.9l11.2-3.6zM14.9 141.7c.7 3 1.5 6.1 2.4 9l-11.2 3.6c-1.1-3.4-1.9-6.7-2.7-10.2l11.5-2.4zM12.5 119.6c0 3.1.2 6.2.5 9.3l-11.8 1.3c-.3-3.4-.5-7-.5-10.5h11.8zM13 108.5c-.3 3-.4 6.2-.5 9.3H.7c0-3.5.3-7.1.6-10.5l11.7 1.2zM17.4 86.8c-.9 2.9-1.8 6-2.4 9L3.4 93.4c.8-3.4 1.7-6.8 2.7-10.2l11.3 3.6zM21.3 76.3C20 79.2 18.9 82 17.9 85L6.7 81.4c1.1-3.4 2.3-6.6 3.8-9.9l10.8 4.8zM26.2 66.4c-1.5 2.7-2.9 5.5-4.2 8.2l-10.8-4.8c1.4-3.2 3-6.3 4.8-9.4l10.2 6zM32.2 57c-1.8 2.5-3.5 5.2-5.1 7.9L17 59c1.8-3 3.7-6 5.7-8.8l9.5 6.8zM47 40.4c-2.3 2.1-4.5 4.3-6.6 6.6l-8.8-7.9c2.4-2.6 4.9-5.1 7.4-7.5l8 8.8zM55.6 33.4c-2.5 1.9-4.9 3.8-7.3 5.9l-7.9-8.8c2.6-2.4 5.4-4.6 8.2-6.6l7 9.5zM64.8 27.2c-2.7 1.6-5.3 3.3-7.9 5L50 22.7c2.9-2 5.8-3.9 8.9-5.7l5.9 10.2zM74.7 22.1c-2.9 1.3-5.6 2.7-8.2 4.2l-5.9-10.2c3-1.8 6.2-3.4 9.4-4.8l4.7 10.8zM85 18c-3 1-5.9 2.1-8.7 3.4l-4.8-10.8c3.2-1.4 6.5-2.7 9.9-3.8L85 18zM106.7 13.2c-3.1.4-6.2.9-9.2 1.4L95 3.1c3.5-.6 6.9-1.3 10.5-1.6l1.2 11.7zM117.7 12.6c-3.1 0-6.2.1-9.3.5l-1.3-11.8c3.4-.4 7-.5 10.5-.5v11.8zM119.6.7c3.5 0 7.1.3 10.5.6l-1.3 11.8c-3-.3-6.2-.4-9.3-.5V.7z"/><path fill="#EECD17" d="M220.4 178.5c-1.8 3-3.7 6-5.7 8.8l-9.5-6.9c1.8-2.5 3.5-5.2 5.1-7.9l10.1 6zM233.9 144.2c-.8 3.4-1.7 6.8-2.7 10.2l-11.2-3.6c.9-2.9 1.8-6 2.4-9l11.5 2.4zM221.3 60.5c1.8 3 3.4 6.1 4.8 9.4l-10.8 4.8c-1.3-2.9-2.7-5.6-4.2-8.2l10.2-6z"/><path fill="#753E91" d="M117.7 236.7c-3.5 0-7.1-.3-10.5-.6l1.3-11.8c3 .3 6.2.4 9.3.5v11.9zM154.3 231.3c-3.4 1.1-6.7 1.9-10.2 2.7l-2.4-11.5c3-.7 6.1-1.5 9-2.4l3.6 11.2zM196.9 207c-2.6 2.4-5.4 4.6-8.1 6.7l-6.9-9.5c2.5-1.9 4.9-3.8 7.2-5.9l7.8 8.7z"/><path fill="#F2665E" d="M165.8 226.9c-3.2 1.4-6.5 2.7-9.9 3.8l-3.6-11.2c3-1 5.9-2.1 8.7-3.4l4.8 10.8zM198.3 31.7c2.6 2.4 5.1 4.9 7.5 7.4L197 47c-2.1-2.3-4.3-4.5-6.6-6.6l7.9-8.7z"/><path fill="#52C0A7" d="M187.3 214.7c-2.9 2-5.8 4-8.9 5.7l-5.9-10.2c2.7-1.6 5.3-3.3 7.9-5.1l6.9 9.6zM188.8 23.8c2.8 2.1 5.6 4.3 8.1 6.7l-7.9 8.7c-2.4-2-4.7-4.1-7.2-5.9l7-9.5zM144.1 3.5c3.4.8 6.8 1.7 10.2 2.7l-3.6 11.2c-2.9-.9-6-1.8-9-2.5l2.4-11.4zM131.9 1.4c3.5.4 7 .9 10.5 1.7L140 14.6c-3-.6-6.1-1.1-9.2-1.4l1.1-11.8zM40.4 190.4c2.1 2.3 4.3 4.5 6.6 6.6l-7.9 8.8c-2.6-2.4-5.1-4.9-7.5-7.4l8.8-8z"/></symbol><symbol viewBox="0 0 266 266" id="pulse_item6"><path fill="#143672" d="M159.8 262.9c-3.9.9-7.9 1.4-11.9 1.9l-1.3-11.8c3.7-.4 7.2-.9 10.7-1.7l2.5 11.6zM173.2 259.4c-3.8 1.2-7.7 2.3-11.6 3.1l-2.4-11.6c3.5-.8 7.1-1.7 10.4-2.8l3.6 11.3zM231 222.4c-2.7 3-5.6 5.8-8.5 8.5l-7.9-8.9c2.7-2.4 5.2-5 7.7-7.7l8.7 8.1zM239.7 211.7c-2.3 3.2-4.9 6.4-7.6 9.4l-8.9-7.9c2.4-2.7 4.6-5.5 6.8-8.4l9.7 6.9zM247.4 200.1c-2 3.4-4.2 6.8-6.6 10.1l-9.6-7c2.1-3 4.1-6 5.9-9.1l10.3 6zM253.8 187.8c-1.7 3.7-3.5 7.2-5.5 10.8l-10.3-5.9c1.8-3.1 3.5-6.3 4.9-9.6l10.9 4.7zM262.5 161.5c-.8 3.9-1.9 7.8-3.1 11.6l-11.3-3.7c1.1-3.4 2-6.9 2.8-10.4l11.6 2.5zM265.6 134c0 4.1-.3 8.1-.7 12l-11.8-1.3c.3-3.5.5-7.2.6-10.8h11.9zM262.9 106.4c.8 3.9 1.4 7.9 1.8 12l-11.8 1.3c-.4-3.6-.9-7.2-1.7-10.7l11.7-2.6zM254.5 80c1.6 3.7 3 7.4 4.3 11.3L247.6 95c-1.2-3.4-2.4-6.8-3.9-10.1l10.8-4.9zM248.3 67.6c2 3.4 3.8 7.1 5.5 10.8l-10.9 4.8c-1.5-3.3-3.1-6.5-4.9-9.6l10.3-6zM232.1 45.1c2.7 3 5.2 6.2 7.6 9.4l-9.6 7c-2.2-2.9-4.4-5.7-6.8-8.4l8.8-8zM222.4 35.2c3 2.7 5.8 5.6 8.5 8.5l-8.9 7.9c-2.4-2.7-5-5.2-7.7-7.6l8.1-8.8zM200.1 18.8c3.4 2 6.8 4.2 10.1 6.6l-7 9.6c-2.9-2.1-6-4.1-9.1-5.9l6-10.3zM174.9 7.3c3.9 1.3 7.6 2.7 11.3 4.3l-4.8 10.9c-3.3-1.4-6.6-2.8-10.1-3.9l3.6-11.3zM147.8 1.4c4.1.4 8 1.1 11.9 1.8l-2.4 11.7c-3.5-.7-7.1-1.3-10.7-1.7l1.2-11.8zM108.9 251.2c3.5.8 7.1 1.3 10.7 1.7l-1.3 11.8c-4-.4-8-1.1-11.9-1.9l2.5-11.6zM96.7 248.1c3.5 1.1 6.9 2 10.5 2.8l-2.4 11.6c-4-.9-7.9-1.9-11.7-3.1l3.6-11.3zM73.5 238c3.1 1.8 6.3 3.5 9.6 4.9l-4.8 10.9c-3.7-1.7-7.2-3.5-10.8-5.5l6-10.3zM53 223.3c2.7 2.4 5.5 4.6 8.4 6.8l-7 9.6c-3.2-2.4-6.4-4.9-9.4-7.6l8-8.8zM44 214.4c2.4 2.7 4.9 5.2 7.7 7.7l-7.9 8.9c-2.9-2.7-5.8-5.6-8.5-8.5l8.7-8.1zM18.6 171.2c1.2 3.4 2.4 6.8 3.9 10.1l-10.9 4.8c-1.6-3.7-3-7.4-4.3-11.3l11.3-3.6zM15.2 159.1c.8 3.5 1.7 7.1 2.8 10.5l-11.3 3.7c-1.2-3.8-2.3-7.7-3.1-11.6l11.6-2.6zM13.2 146.6c.4 3.6.9 7.1 1.7 10.7l-11.6 2.4c-.9-3.9-1.4-7.9-1.9-11.9l11.8-1.2zM12.4 134c0 3.6.3 7.2.6 10.8L1.2 146c-.4-3.9-.6-8-.6-12h11.8zM18.1 96.7c-1.1 3.5-2 6.9-2.8 10.5l-11.7-2.5c.9-3.9 1.9-7.8 3.1-11.6l11.4 3.6zM42.8 53c-2.4 2.7-4.6 5.5-6.8 8.4l-9.6-7c2.3-3.2 4.9-6.4 7.6-9.4l8.8 8zM61.5 36c-2.9 2.2-5.7 4.5-8.4 6.8l-8-8.8c3-2.7 6.2-5.2 9.4-7.6l7 9.6zM72 29c-3.1 1.9-6.2 3.8-9.1 5.9l-7-9.6c3.3-2.4 6.7-4.6 10.1-6.6L72 29zM94.9 18.6c-3.4 1.2-6.8 2.4-10.1 3.9L80 11.6c3.7-1.6 7.4-3 11.3-4.3l3.6 11.3zM107.1 15.2c-3.5.8-7.1 1.7-10.5 2.8L93 6.7c3.8-1.2 7.7-2.3 11.6-3.1l2.5 11.6zM134 .5c4.1 0 8.1.3 12 .6L144.8 13c-3.5-.3-7.2-.5-10.8-.6V.5z"/><path fill="#EECD17" d="M36 204.7c2.2 2.9 4.4 5.7 6.8 8.4l-8.9 7.9c-2.7-3-5.2-6.2-7.6-9.4l9.7-6.9z"/><path fill="#753E91" d="M132.2 265.6c-4.1 0-8.1-.3-12-.6l1.3-11.8c3.5.4 7.2.5 10.8.6v11.8zM265 120.1c.4 4 .6 8 .6 12.1h-11.9c0-3.7-.3-7.3-.6-10.8l11.9-1.3zM187.8 12.3c3.7 1.7 7.2 3.5 10.8 5.5l-5.9 10.3c-3.1-1.8-6.3-3.5-9.6-4.9l4.7-10.9zM13 121.4c-.3 3.5-.5 7.1-.6 10.8H.5c0-4.1.3-8.1.7-12.1l11.8 1.3zM51.7 44c-2.7 2.5-5.2 5-7.7 7.7l-8.9-7.9c2.7-3 5.6-5.8 8.5-8.5l8.1 8.7z"/><path fill="#F2665E" d="M186.1 254.5c-3.7 1.6-7.4 3-11.3 4.3l-3.7-11.3c3.4-1.2 6.8-2.4 10.1-3.9l4.9 10.9zM198.5 248.3c-3.4 2-7.1 3.8-10.8 5.5l-4.8-10.9c3.3-1.5 6.5-3.1 9.6-4.9l6 10.3zM259.4 93c1.2 3.8 2.3 7.7 3.1 11.6l-11.6 2.4c-.8-3.5-1.7-7.1-2.8-10.4l11.3-3.6zM23.2 183c1.5 3.3 3.1 6.5 4.9 9.6l-10.3 5.9c-2-3.4-3.8-7.1-5.5-10.8l10.9-4.7zM22.4 84.9c-1.4 3.3-2.8 6.7-3.9 10.1L7.3 91.3c1.3-3.9 2.7-7.6 4.3-11.3l10.8 4.9zM28.2 73.6c-1.8 3.1-3.4 6.3-4.9 9.6l-10.9-4.8c1.7-3.7 3.5-7.2 5.4-10.8l10.4 6zM119.6 13.2c-3.6.4-7.2.9-10.7 1.7l-2.4-11.7c3.9-.8 7.9-1.4 12-1.8l1.1 11.8zM132.2 12.4c-3.6 0-7.2.3-10.8.6l-1.3-11.8c3.9-.4 8-.6 12-.6v11.8z"/><path fill="#52C0A7" d="M221.1 232.1c-3 2.7-6.1 5.2-9.4 7.6l-7-9.6c2.9-2.2 5.7-4.4 8.4-6.8l8 8.8zM211.7 26.4c3.2 2.3 6.4 4.9 9.4 7.6l-7.9 8.9c-2.7-2.4-5.5-4.6-8.4-6.8l6.9-9.7zM62.9 231.2c2.9 2.1 6 4.1 9.1 5.9l-5.9 10.3c-3.4-2-6.8-4.2-10.1-6.6l6.9-9.6z"/></symbol><symbol viewBox="0 0 296 296" id="pulse_item7"><path fill="#143672" d="M292.4 118.3c.9 4.4 1.6 8.9 2.1 13.5l-11.9 1.3c-.4-4.1-1.1-8.2-1.9-12.2l11.7-2.6zM162.6 294.7c-4.5.4-9 .7-13.6.7v-12c4.2 0 8.3-.3 12.4-.6l1.2 11.9zM177.8 292.4c-4.4.9-8.9 1.6-13.5 2.1l-1.2-11.8c4.1-.4 8.2-1.1 12.2-1.9l2.5 11.6zM192.7 288.5c-4.3 1.4-8.7 2.5-13.2 3.5l-2.4-11.7c4.1-.9 8-2 12-3.2l3.6 11.4zM207.2 283c-4.1 1.8-8.4 3.4-12.7 4.9l-3.7-11.4c3.9-1.4 7.7-2.8 11.5-4.5l4.9 11zM220.9 276.1c-3.9 2.3-8 4.3-12.1 6.2l-4.9-10.9c3.8-1.7 7.4-3.6 11-5.7l6 10.4zM233.9 267.8c-3.7 2.6-7.5 5.2-11.4 7.4l-6-10.4c3.5-2.1 7-4.4 10.4-6.7l7 9.7zM275.2 222.5c-2.3 3.9-4.8 7.7-7.4 11.4l-9.7-7c2.4-3.4 4.7-6.8 6.7-10.4l10.4 6zM287.9 194.5c-1.4 4.3-3 8.6-4.9 12.7l-10.9-4.9c1.7-3.8 3.1-7.6 4.4-11.5l11.4 3.7zM292 179.6c-1 4.5-2.2 8.9-3.5 13.2l-11.4-3.7c1.3-3.9 2.3-7.9 3.2-11.9l11.7 2.4zM295.4 149c0 4.6-.3 9.1-.7 13.6l-11.9-1.3c.4-4.1.6-8.2.7-12.4l11.9.1zM283 89c1.9 4.1 3.4 8.4 4.9 12.7l-11.4 3.7c-1.4-3.9-2.8-7.7-4.5-11.5l11-4.9zM267.8 62.2c2.6 3.7 5.1 7.5 7.4 11.4l-10.4 6c-2.1-3.5-4.4-7-6.7-10.4l9.7-7zM258.2 50.2c3 3.4 5.9 6.9 8.6 10.6l-9.7 7c-2.4-3.3-5.1-6.5-7.7-9.6l8.8-8zM247.3 39.2c3.4 3 6.6 6.2 9.6 9.6l-8.8 8c-2.8-3-5.7-6-8.8-8.8l8-8.8zM235.4 29.5c3.6 2.7 7.2 5.6 10.6 8.6l-8 8.8c-3.1-2.7-6.3-5.3-9.6-7.7l7-9.7zM222.5 21c3.9 2.3 7.7 4.8 11.4 7.4l-7 9.7c-3.4-2.4-6.8-4.7-10.4-6.7l6-10.4zM208.8 13.9c4.1 1.9 8.2 4 12.1 6.2l-6 10.4c-3.5-2-7.2-3.9-11-5.6l4.9-11zM179.6 4.2c4.5 1 8.9 2.2 13.2 3.5L189 19.1c-3.9-1.3-7.9-2.3-12-3.2l2.6-11.7zM107.1 277.1c3.9 1.3 7.9 2.3 11.9 3.2l-2.4 11.7c-4.4-1-8.9-2.2-13.2-3.5l3.7-11.4zM93.8 272.2c3.8 1.7 7.6 3.1 11.5 4.4l-3.7 11.4c-4.3-1.4-8.6-3-12.7-4.9l4.9-10.9zM81.2 265.7c3.5 2 7.2 3.9 11 5.6l-4.9 10.9c-4.1-1.9-8.2-4-12.1-6.2l6-10.3zM58.2 249.2c3.1 2.7 6.3 5.3 9.6 7.8l-7 9.7c-3.6-2.7-7.2-5.6-10.6-8.6l8-8.9zM48.1 239.3c2.8 3 5.7 6 8.8 8.8l-8 8.8c-3.4-3-6.6-6.2-9.6-9.6l8.8-8zM31.3 216.6c2.1 3.5 4.4 7 6.7 10.4l-9.7 7c-2.6-3.7-5.1-7.5-7.4-11.4l10.4-6zM12.7 149c0 4.1.3 8.2.7 12.4l-11.9 1.3c-.4-4.5-.7-9-.7-13.6h11.9v-.1zM15.5 120.8c-.9 4.1-1.4 8.1-1.9 12.2l-11.9-1.3c.5-4.6 1.2-9 2.1-13.5l11.7 2.6zM19 107.1c-1.3 3.9-2.3 7.9-3.2 12l-11.7-2.4c1-4.5 2.2-8.9 3.5-13.2l11.4 3.6zM24.1 93.8c-1.7 3.8-3.1 7.6-4.5 11.5l-11.4-3.7c1.4-4.3 3-8.6 4.9-12.7l11 4.9zM30.4 81.2c-2 3.5-3.9 7.2-5.7 11l-10.9-4.9c1.9-4.1 4-8.2 6.2-12.1l10.4 6zM38.1 69.2c-2.4 3.4-4.7 6.8-6.7 10.4l-10.4-6c2.3-3.9 4.8-7.7 7.4-11.4l9.7 7zM79.6 31.3c-3.5 2.1-7 4.4-10.4 6.7l-7-9.7c3.7-2.6 7.5-5.1 11.4-7.4l6 10.4zM92.2 24.7c-3.8 1.7-7.4 3.6-11 5.7l-6-10.4c3.9-2.3 8-4.3 12.1-6.2l4.9 10.9zM119 15.8c-4.1.9-8 1.9-12 3.2l-3.7-11.4c4.3-1.3 8.7-2.5 13.1-3.5l2.6 11.7zM133 13.5c-4.1.4-8.2 1.1-12.2 1.9l-2.4-11.7c4.4-.9 8.9-1.6 13.5-2.1l1.1 11.9zM149 .7c4.6 0 9.1.3 13.6.6l-1.3 11.9c-4-.4-8.2-.6-12.4-.7L149 .7z"/><path fill="#EECD17" d="M294.7 133.6c.4 4.5.7 9 .7 13.6h-11.9c0-4.2-.3-8.3-.7-12.4l11.9-1.2zM13.4 134.8c-.4 4.1-.6 8.2-.7 12.4H.7c0-4.6.3-9.1.7-13.6l12 1.2zM67.8 39.1c-3.3 2.4-6.5 5.1-9.6 7.7l-8-8.8c3.4-3 6.9-5.9 10.6-8.6l7 9.7z"/><path fill="#753E91" d="M266.7 235.4c-2.7 3.6-5.6 7.2-8.6 10.6l-8.8-8c2.7-3.1 5.3-6.3 7.7-9.6l9.7 7zM282.3 208.8c-1.9 4.1-4 8.1-6.2 12.1l-10.4-6c2-3.5 3.9-7.2 5.6-11l11 4.9zM164.4 1.6c4.6.5 9 1.2 13.5 2.1l-2.4 11.7c-4.1-.9-8.1-1.4-12.2-1.9l1.1-11.9zM39.1 228.4c2.4 3.3 5.1 6.5 7.7 9.6l-8.9 8c-3-3.4-5.9-6.9-8.6-10.6l9.8-7zM15.8 177.1c.9 4.1 1.9 8 3.2 12l-11.4 3.7c-1.3-4.3-2.5-8.7-3.5-13.1l11.7-2.6zM56.8 48.1c-3 2.8-6 5.7-8.8 8.8l-8.8-8c3-3.4 6.2-6.6 9.6-9.6l8 8.8zM105.3 19.6c-3.9 1.4-7.7 2.8-11.5 4.4l-4.9-10.9c4.1-1.8 8.4-3.4 12.7-4.9l3.7 11.4z"/><path fill="#F2665E" d="M288.5 103.4c1.3 4.3 2.5 8.7 3.5 13.2l-11.7 2.4c-.9-4.1-1.9-8-3.2-12l11.4-3.6zM194.5 8.2c4.3 1.4 8.6 3 12.7 4.9L202.3 24c-3.8-1.7-7.6-3.1-11.5-4.4l3.7-11.4zM24.7 204c1.7 3.8 3.6 7.4 5.7 11L20 221c-2.3-3.9-4.3-8-6.2-12.1l10.9-4.9zM147.2 12.7c-4.1 0-8.3.3-12.4.7l-1.3-11.9c4.5-.4 9-.7 13.6-.7v11.9h.1z"/><path fill="#52C0A7" d="M246 258.2c-3.4 3-6.9 5.9-10.6 8.6l-7-9.7c3.3-2.4 6.5-5.1 9.6-7.7l8 8.8zM120.8 280.7c4.1.9 8.1 1.4 12.2 1.9l-1.3 11.9c-4.6-.5-9-1.2-13.5-2.1l2.6-11.7zM13.5 163.1c.4 4.1 1.1 8.2 1.9 12.2l-11.7 2.4c-.9-4.4-1.6-8.9-2.1-13.5l11.9-1.1z"/></symbol><symbol viewBox="0 0 327 327" id="pulse_item8"><path fill="#143672" d="M179.6 325.3c-4.9.5-10.1.8-15.2.8v-12.4c4.7 0 9.4-.3 13.9-.8l1.3 12.4zM213 318.5c-4.8 1.5-9.7 2.9-14.7 3.9l-2.6-12.1c4.6-1 9-2.2 13.5-3.6l3.8 11.8zM258.4 295.6c-4.1 2.9-8.3 5.7-12.7 8.3l-6.2-10.8c4-2.4 7.9-4.9 11.6-7.6l7.3 10.1zM271.6 284.9c-3.8 3.4-7.7 6.6-11.8 9.6l-7.3-10c3.7-2.8 7.3-5.7 10.8-8.8l8.3 9.2zM283.7 273c-3.5 3.8-7 7.3-10.8 10.8l-8.4-9.2c3.5-3.1 6.7-6.4 9.9-9.9l9.3 8.3zM294.5 259.8c-3 4.1-6.2 8-9.6 11.8l-9.2-8.4c3.1-3.4 6-7.1 8.8-10.8l10 7.4zM325.2 181.5c-.6 5.1-1.4 10.1-2.4 15l-12.1-2.6c.9-4.6 1.7-9.1 2.2-13.7l12.3 1.3zM326.1 164.4c0 5.2-.4 10.2-.8 15.2l-12.4-1.3c.4-4.6.7-9.2.8-13.9h12.4zM325.3 147.5c.5 4.9.8 10.1.8 15.2h-12.4c0-4.7-.3-9.4-.8-13.9l12.4-1.3zM322.8 130.6c1 4.9 1.8 9.9 2.4 15l-12.4 1.3c-.5-4.6-1.3-9.2-2.2-13.7l12.2-2.6zM304.8 83c2.5 4.4 4.8 8.9 6.9 13.6l-11.4 5.1c-1.9-4.2-4.1-8.3-6.3-12.4l10.8-6.3zM284.9 55.5c3.4 3.8 6.6 7.7 9.6 11.8l-10 7.3c-2.8-3.7-5.7-7.3-8.8-10.8l9.2-8.3zM230.5 15.3c4.6 2.1 9.2 4.4 13.6 6.9L237.9 33c-4.1-2.3-8.2-4.4-12.4-6.3l5-11.4zM214.7 9.2c4.8 1.6 9.6 3.4 14.2 5.4L223.8 26c-4.2-1.9-8.6-3.5-13-5l3.9-11.8zM133.2 310.7c4.5.9 9.1 1.7 13.7 2.2l-1.3 12.4c-5.1-.6-10.1-1.4-15-2.4l2.6-12.2zM117.9 306.7c4.4 1.4 8.9 2.6 13.5 3.6l-2.6 12.1c-4.9-1.1-9.8-2.4-14.6-3.9l3.7-11.8zM63.8 275.7c3.5 3.1 7.1 6 10.8 8.8l-7.3 10c-4.1-3-8-6.2-11.8-9.6l8.3-9.2zM42.5 252.6c2.8 3.7 5.7 7.3 8.8 10.8l-9.2 8.3c-3.3-3.8-6.6-7.7-9.6-11.8l10-7.3zM26.7 225.4c2 4.2 4.1 8.4 6.3 12.4L22.2 244c-2.5-4.4-4.8-8.9-6.9-13.6l11.4-5zM21 210.8c1.4 4.4 3.1 8.7 4.9 12.9l-11.4 5.1c-2-4.6-3.9-9.3-5.5-14.2l12-3.8zM16.8 195.6c1 4.6 2.2 9 3.6 13.5L8.6 213c-1.5-4.8-2.9-9.7-3.9-14.8l12.1-2.6zM13.3 164.4c0 4.7.3 9.4.8 13.9l-12.4 1.3c-.5-4.9-.8-10.1-.8-15.2h12.4zM20.4 118c-1.4 4.4-2.6 8.9-3.6 13.5l-12.1-2.6c1.1-5 2.4-9.9 3.9-14.7l11.8 3.8zM51.3 63.8c-3.1 3.5-6 7.1-8.8 10.8l-10-7.3c3-4.2 6.2-8 9.6-11.8l9.2 8.3zM101.6 26.7c-4.2 1.9-8.3 4.1-12.4 6.3L83 22.3c4.4-2.5 8.9-4.8 13.6-6.9l5 11.3zM146.9 14.3c-4.7.5-9.3 1.3-13.7 2.2l-2.6-12.2c4.9-1 9.9-1.8 15-2.4l1.3 12.4zM162.6 13.3c-4.7 0-9.4.3-13.9.8l-1.3-12.4c4.9-.5 10.1-.8 15.2-.8v12.4z"/><path fill="#EECD17" d="M162.6 326.1c-5.2 0-10.2-.3-15.2-.8l1.3-12.4c4.6.4 9.2.7 13.9.8v12.4zM244.1 304.8c-4.4 2.5-8.9 4.8-13.6 6.9l-5.1-11.4c4.2-1.9 8.3-4 12.4-6.3l6.3 10.8zM259.8 32.5c4.1 3 8 6.2 11.8 9.6l-8.3 9.2c-3.5-3.1-7.1-6-10.8-8.7l7.3-10.1zM198.2 4.7c4.9 1.1 9.9 2.4 14.6 3.9L209 20.4c-4.4-1.4-8.8-2.6-13.5-3.6l2.7-12.1zM16.4 133.2c-.9 4.6-1.7 9.1-2.2 13.7l-12.4-1.3c.6-5.1 1.4-10.1 2.4-15l12.2 2.6zM116.2 21c-4.4 1.4-8.7 3.1-13 4.9l-5.1-11.4c4.7-2 9.4-3.9 14.3-5.5l3.8 12z"/><path fill="#753E91" d="M181.5 1.9c5.1.6 10.1 1.4 15 2.4l-2.6 12.2c-4.5-.9-9.1-1.7-13.7-2.2l1.3-12.4zM103.3 301.1c4.2 1.8 8.6 3.5 13 4.9l-3.9 11.8c-4.8-1.6-9.6-3.4-14.2-5.5l5.1-11.2zM33 89.2c-2.3 4.1-4.4 8.2-6.3 12.4l-11.4-5.1c2.1-4.6 4.4-9.2 6.9-13.6L33 89.2zM62.4 52.6c-3.5 3.1-6.7 6.4-9.9 9.9l-9.2-8.4c3.4-3.8 7-7.3 10.8-10.8l8.3 9.3zM74.6 42.6c-3.7 2.8-7.3 5.7-10.8 8.7l-8.3-9.2c3.8-3.4 7.7-6.6 11.8-9.6l7.3 10.1z"/><path fill="#F2665E" d="M311.7 230.5c-2.1 4.7-4.4 9.2-6.9 13.6l-10.8-6.2c2.3-4.1 4.4-8.2 6.3-12.4l11.4 5zM318.4 114.1c1.5 4.8 2.9 9.7 3.9 14.8l-12.1 2.6c-1-4.5-2.2-9-3.6-13.5l11.8-3.9zM273 43.3c3.8 3.5 7.3 7 10.8 10.8l-9.2 8.4c-3.1-3.5-6.4-6.7-9.9-9.9l8.3-9.3zM76 285.6c3.8 2.7 7.7 5.2 11.6 7.6L81.4 304c-4.4-2.6-8.7-5.3-12.7-8.3l7.3-10.1z"/><path fill="#52C0A7" d="M317.9 214.7c-1.6 4.8-3.5 9.6-5.5 14.2l-11.4-5.1c1.8-4.2 3.5-8.6 4.9-13l12 3.9zM322.4 198.2c-1.1 5-2.4 9.9-3.9 14.7l-11.8-3.9c1.4-4.4 2.6-8.8 3.6-13.5l12.1 2.7zM52.6 264.7c3.1 3.5 6.4 6.7 9.9 9.9l-8.4 9.2c-3.8-3.4-7.3-7-10.8-10.8l9.3-8.3zM14.3 180.1c.5 4.7 1.3 9.3 2.2 13.7l-12.2 2.6c-1-5-1.8-9.9-2.3-15l12.3-1.3z"/></symbol><symbol viewBox="0 0 355 355" id="pulse_item9"><path fill="#143672" d="M195.6 353.4c-5.5.5-11 .8-16.7.8v-11.8c5.2 0 10.4-.3 15.4-.8l1.3 11.8zM249.1 339.4c-5.1 2.3-10.3 4.2-15.6 6l-3.6-11.2c4.9-1.6 9.8-3.4 14.4-5.6l4.8 10.8zM295.6 309.4c-4.1 3.7-8.5 7.2-13 10.5l-6.9-9.5c4.2-3 8.2-6.3 12-9.8l7.9 8.8zM345.9 233c-1.8 5.3-3.8 10.5-6 15.6l-10.8-4.8c2.1-4.7 4-9.5 5.6-14.4l11.2 3.6zM353.7 196.9c-.6 5.6-1.5 11.1-2.6 16.5l-11.5-2.4c1-5.1 1.8-10.1 2.4-15.2l11.7 1.1zM346.4 123.7c1.7 5.3 3.1 10.7 4.3 16.2l-11.5 2.5c-1.1-5.1-2.4-10-3.9-14.9l11.1-3.8zM321.5 74.4c3.3 4.6 6.3 9.2 9.1 14l-10.2 5.9c-2.6-4.5-5.4-8.8-8.4-13l9.5-6.9zM296.9 46.8c4.1 3.7 8.1 7.6 11.8 11.8l-8.7 7.9c-3.4-3.8-7.2-7.5-10.9-10.9l7.8-8.8zM250.7 16.4c5.1 2.3 10 4.8 14.9 7.6l-5.9 10.2c-4.4-2.5-9.1-4.9-13.7-7.1l4.7-10.7zM233.5 9.7c5.3 1.8 10.5 3.8 15.6 6l-4.8 10.8c-4.7-2.1-9.5-3.9-14.4-5.6l3.6-11.2zM197.3 1.8c5.6.6 11.1 1.5 16.5 2.6l-2.5 11.5c-5.1-1-10.1-1.8-15.2-2.4l1.2-11.7zM144.6 339.1c5.1 1 10.1 1.9 15.2 2.4l-1.3 11.7c-5.6-.6-11.1-1.5-16.5-2.6l2.6-11.5zM127.8 334.7c4.9 1.5 9.8 2.9 14.9 4.1l-2.4 11.5c-5.4-1.2-10.9-2.6-16.1-4.3l3.6-11.3zM111.7 328.6c4.7 2.1 9.5 3.9 14.4 5.6l-3.7 11.2c-5.3-1.8-10.5-3.8-15.6-6l4.9-10.8zM96.3 320.9c4.4 2.5 9.1 4.9 13.7 7.1l-4.8 10.8c-5.1-2.3-10-4.8-14.9-7.6l6-10.3zM35.6 260.8c2.6 4.5 5.4 8.8 8.4 13l-9.5 6.9c-3.3-4.6-6.3-9.2-9.1-14l10.2-5.9zM21.3 229.4c1.6 4.9 3.5 9.8 5.6 14.4l-10.8 4.8c-2.3-5.1-4.2-10.3-6-15.6l11.2-3.6zM13 178.4c0 5.2.3 10.4.8 15.4L2 195.1c-.5-5.4-.8-11-.8-16.7H13zM13.8 161.2c-.5 5-.8 10.2-.8 15.4H1.2c0-5.7.3-11.2.8-16.7l11.8 1.3zM16.4 144.1c-1 5.1-1.9 10.1-2.4 15.2L2.3 158c.6-5.6 1.5-11.1 2.6-16.5l11.5 2.6zM20.8 127.4c-1.5 4.9-2.9 9.9-4.1 14.9l-11.5-2.4c1.2-5.5 2.6-10.9 4.3-16.1l11.3 3.6zM54.8 67.8c-3.4 3.9-6.6 7.8-9.8 12l-9.5-6.9c3.3-4.4 6.8-8.8 10.5-13l8.8 7.9zM66.9 55.5c-3.8 3.4-7.5 7.2-11 10.9l-8.7-7.9c3.7-4.1 7.7-8.1 11.8-11.8l7.9 8.8zM80.3 44.5c-4.1 3-8.2 6.3-12 9.8l-7.9-8.7c4.1-3.7 8.5-7.2 13-10.5l6.9 9.4zM110.1 27.1c-4.7 2.1-9.4 4.5-13.7 7.1l-6-10.2c4.8-2.8 9.8-5.3 14.9-7.6l4.8 10.7zM126.2 20.9c-4.9 1.6-9.8 3.4-14.4 5.6L107 15.7c5.1-2.3 10.3-4.2 15.6-6l3.6 11.2zM142.8 16.3c-5.1 1.1-10 2.4-14.9 3.9L124.3 9c5.3-1.7 10.7-3.1 16.2-4.3l2.3 11.6zM159.8 13.5c-5.1.6-10.3 1.4-15.2 2.4l-2.4-11.5c5.4-1.1 10.9-2 16.5-2.6l1.1 11.7zM178.9.8c5.7 0 11.2.3 16.7.8l-1.3 11.7c-5.1-.5-10.3-.8-15.4-.9V.8z"/><path fill="#EECD17" d="M213.9 350.6c-5.4 1.1-11 2-16.5 2.6l-1.3-11.7c5.1-.6 10.3-1.3 15.2-2.4l2.6 11.5zM281.1 321c-4.6 3.3-9.2 6.3-14 9.1l-5.9-10.2c4.4-2.6 8.7-5.4 12.9-8.4l7 9.5zM215.6 4.8c5.5 1.2 10.9 2.6 16.1 4.3l-3.6 11.2c-4.9-1.5-9.9-2.9-14.9-4.1l2.4-11.4zM27.6 245.5c2.1 4.7 4.5 9.2 7.1 13.7l-10.2 5.9c-2.8-4.8-5.3-9.8-7.6-14.9l10.7-4.7zM44 81.3c-3 4.2-5.8 8.5-8.4 13l-10.2-5.9c2.8-4.8 5.9-9.5 9.1-14l9.5 6.9z"/><path fill="#753E91" d="M320.4 282.1c-3.3 4.4-6.8 8.9-10.5 13l-8.7-7.9c3.4-3.9 6.7-7.9 9.8-12l9.4 6.9zM351.2 141.6c1.1 5.4 2 11 2.6 16.5l-11.7 1.3c-.6-5.1-1.4-10.3-2.4-15.2l11.5-2.6zM331.5 89.9c2.8 4.8 5.3 9.8 7.6 14.9l-10.8 4.8c-2.1-4.7-4.5-9.2-7.1-13.7l10.3-6zM282.6 35c4.5 3.3 8.9 6.8 13 10.5l-7.9 8.7c-3.9-3.4-7.8-6.7-12-9.8l6.9-9.4zM14 195.7c.6 5.1 1.4 10.3 2.4 15.2l-11.5 2.4c-1.1-5.4-2-10.9-2.6-16.5l11.7-1.1zM34.7 95.8c-2.5 4.5-4.9 9.1-7.1 13.7l-10.8-4.8c2.3-5.1 4.8-10 7.6-14.9l10.3 6z"/><path fill="#F2665E" d="M339.1 250.3c-2.3 5.1-4.8 10-7.6 14.9l-10.2-5.9c2.5-4.5 4.9-9.1 7.1-13.7l10.7 4.7zM81.7 311.5c4.2 3 8.5 5.8 13 8.4l-5.9 10.2c-4.8-2.8-9.5-5.9-14-9.1l6.9-9.5z"/><path fill="#52C0A7" d="M56 288.5c3.4 3.8 7.2 7.5 11 11l-7.9 8.7c-4.1-3.7-8.1-7.7-11.8-11.8l8.7-7.9zM94.7 35.1c-4.4 2.6-8.7 5.4-13 8.4L74.8 34c4.6-3.3 9.2-6.3 14-9.1l5.9 10.2z"/></symbol><symbol viewBox="0 0 149.8 70.113876" id="pulse_logo"><style id="bbstyle3">.bbst0{fill-rule:evenodd;clip-rule:evenodd}.bbst0,.bbst1{fill:#fff}</style><path d="M143.1 42.46l3.6-1.2c2.3-.8 3.1.3 3.1 2.6v14.1c0 2-.9 2.9-2.7 3.5l-23.8 8.6c-.8.3-1.5-.7-1.5-1.6v-8.4l18.6-6.7c1.8-.7 2.7-1.5 2.7-3.5v-7.4z" class="bbst0" id="bbXMLID_22_" clip-rule="evenodd" fill="#fff" fill-rule="evenodd"/><path d="M3.3 7.46L25 .26c2.3-.8 3.1.3 3.1 2.6v6.7l-18.1 6c-1.9.6-3.3 1.2-3.3 3.5v8.1l-5.2 1.9c-.8.3-1.5-.7-1.5-1.6v-16.5c0-2.3 1.4-2.8 3.3-3.5z" class="bbst0" id="bbXMLID_21_" clip-rule="evenodd" fill="#fff" fill-rule="evenodd"/><g transform="translate(-.6 -.44)" id="bbXMLID_9_"><g id="bbXMLID_23_"><path d="M86.3 50.8c1.9.6 4.3.5 6.9.5 7.5 0 11.3-3.1 11.3-7.4-.1-3.3-2.1-5.5-7.1-7.1-3.9-1.2-4.1-2.9-2.1-3.5 1.4-.4 3.8 0 6.5.4v-6c-2.9-.6-7.2-.4-9.3-.1-2.2.4-4 1.1-5.3 2.3-2.3 2.2-2.7 7.2-.1 9.4 1.2 1 3 1.6 5.8 2.4 2.9.9 3.2 3 .3 3-2.4 0-5.4-.2-6.9-1v7.1z" class="bbst0" id="bbXMLID_32_" clip-rule="evenodd" fill="#fff" fill-rule="evenodd"/></g><g id="bbXMLID_18_"><path d="M18.1 63.3l8.3-3.1V48.6h.1c1 1.5 3 2.7 5.6 2.7 4.8 0 9.8-4 9.8-12.6 0-7.5-4.3-12-9-12-3.1 0-5.6 1.3-7.2 3.8h-.1l-.3-3.3h-7.4c.4 11 .2 25.2.2 36.1zm8.2-26.1c0-.5 0-1.2.1-1.6.4-2.7 1.7-3 3.2-3 2.4 0 3.6 1.9 3.6 6.7 0 5.1-1.4 6.7-3.7 6.7-1.6 0-2.8-.2-3.1-2.7-.1-.6-.1-1.2-.1-2v-4.1z" class="bbst0" id="bbXMLID_28_" clip-rule="evenodd" fill="#fff" fill-rule="evenodd"/></g><path d="M127.1 39.3c.1-4.3-.9-7.5-2.9-9.6-1.6-1.7-3.9-2.5-6.7-2.5-3.7 0-10 1.6-10 12.1 0 10.8 6.2 12.1 10.8 12.1 3.6 0 6.8-1.1 6.9-1.2l.5-.2v-6l-1 .3s-3.7 1.1-6.5 1.1c-1.5 0-3.2-.4-3.6-3.4H127l.1-2.7zm-12.4-2.5c.2-4 1.3-4.3 2.8-4.3 1.1 0 2.2 0 2.4 4.3h-5.2z" class="bbst1" id="bbXMLID_29_" fill="#fff"/><g id="bbXMLID_5_"><path d="M80.5 16.6l-8.6 3v31.7h8.6V16.6z" class="bbst0" id="bbXMLID_13_" clip-rule="evenodd" fill="#fff" fill-rule="evenodd"/></g><path d="M58.8 27.1v17.2c-.7.4-2.5 1.3-4 1.3-1 0-1.6-.1-1.6-1.8V27.1h-7.4v17.4c0 4.8 2.5 7.4 7.2 7.4 2.9 0 5.3-1.5 6.4-2.4l.7 2h6.1V27.1h-7.4z" class="bbst1" id="bbXMLID_26_" fill="#fff"/></g></symbol><symbol viewBox="0 0 69.004051 28.5" id="stripe-logo"><style id="bcstyle3">.bcst0{fill:#fff}</style><g transform="translate(-.4 -.7)" id="bcXMLID_62_"><path d="M45.5 7.6c.1.5.2 1 .3 1.6l.4-.4c1.6-1.5 3.5-1.9 5.6-1.1 1.2.5 1.9 1.4 2.4 2.5.5 1.2.7 2.4.8 3.6.1 1.7 0 3.5-.5 5.1-1.1 3.6-4.2 5.4-7.9 4.5-.1 0-.3-.1-.5-.1v5.1c-1.7.3-3.3.6-5 .8v-.4V8c0-.3.1-.4.4-.4h4zm.6 8.3v3.5c0 .1.1.3.2.4 1.1.5 2.3.3 2.9-.9.2-.4.4-.8.5-1.1.3-1.3.3-2.6.2-4-.1-.6-.2-1.2-.5-1.7-.4-.9-1.1-1.1-2-.8-.4.2-.7.4-1.1.7-.1.1-.2.3-.2.5v3.4z" class="bcst0" id="bcXMLID_205_" fill="#fff"/><path d="M61.1 17.1c-.2 1.5 1 2.8 2.5 2.9 1.6.1 3.1-.2 4.5-.9.1 0 .2-.1.3-.1.1.5.2 1 .2 1.5.1.6.2 1.1.3 1.7 0 .2 0 .3-.2.4-1.1.6-2.4 1-3.7 1.1-1.4.1-2.8.1-4.1-.2-2.1-.6-3.6-1.9-4.3-3.9-.9-2.7-.9-5.4.1-8 1.2-3 3.8-4.4 6.8-4.2 3.5.2 5.1 2.5 5.6 5.3.3 1.3.4 3.4.2 4.5-2.7-.1-5.5-.1-8.2-.1zM61 14h3.7c-.1-.8-.1-1.6-.4-2.3-.3-.6-.7-1-1.4-1s-1.2.4-1.4 1c-.4.7-.5 1.5-.5 2.3z" class="bcst0" id="bcXMLID_202_" fill="#fff"/><path d="M1.1 18.7c.9.3 1.7.7 2.5.9.9.3 1.9.5 2.8.4.5-.1.9-.3 1-.8.1-.5-.2-.9-.6-1.2-.5-.3-1-.5-1.6-.7l-2.1-.9c-2-1-2.7-2.6-2.5-4.8C.8 9.8 2 8.3 3.9 7.7c2.7-.8 5.1-.4 7.4.6.1 0 .2.2.2.2-.2 1.2-.4 2.4-.6 3.5-.9-.3-1.7-.6-2.6-.8-.5-.1-1.1-.2-1.7-.2-.2 0-.5 0-.7.1-.6.2-.8.9-.3 1.3.2.2.5.4.8.6.7.3 1.4.5 2 .8.7.3 1.3.6 2 1.1 1.3.9 1.8 2.2 1.7 3.7-.1 2.7-1.6 4.5-4.4 4.9-2.4.4-4.7 0-6.9-1-.3-.1-.4-.3-.4-.7.2-1 .3-1.9.5-2.9.2 0 .2-.1.2-.2z" class="bcst0" id="bcXMLID_201_" fill="#fff"/><path d="M19.6 3.1v4.5h3.2c-.1.6-.2 1.2-.3 1.7-.1.6-.2 1.2-.3 1.7 0 .2-.1.3-.4.3h-2.3v6.5c0 1.5.5 1.9 1.9 1.7.3 0 .6-.1.9-.1v4c-.7.1-1.4.3-2.1.3-.8 0-1.6 0-2.4-.2-2-.4-3-1.6-3.3-3.6-.1-.5-.1-.9-.1-1.4v-6.7-.5h-2.1c.1-.8.2-1.5.4-2.3.1-.3.1-.7.2-1 0-.1.2-.2.3-.3.3-.1.6-.1.9-.1.3 0 .4-.2.5-.5.2-1 .4-2 .6-3.1 0-.1.1-.2.2-.3 1.3-.2 2.7-.4 4.2-.6z" class="bcst0" id="bcXMLID_200_" fill="#fff"/><path d="M32.8 12.1c-.7 0-1.3.1-1.9.1-.3 0-.6.1-.8.3-.6.3-.9.6-.9 1.4V23c0 .3-.1.4-.4.4H24.2V7.6h4.4c.1.6.2 1.1.3 1.8.1-.1.1-.2.1-.2.7-1.4 2.1-2 3.6-1.7.1 0 .2.2.2.2v4.4z" class="bcst0" id="bcXMLID_199_" fill="#fff"/><path d="M39.1 23.4h-5V7.6h5v15.8z" class="bcst0" id="bcXMLID_198_" fill="#fff"/><path d="M36.5 6c-1.5 0-2.6-1.2-2.6-2.7 0-1.5 1.2-2.6 2.7-2.6 1.5 0 2.6 1.2 2.6 2.7 0 1.5-1.2 2.7-2.7 2.6z" class="bcst0" id="bcXMLID_197_" fill="#fff"/></g></symbol><symbol viewBox="0 0 25 25" id="twitter"><path fill="currentColor" d="M24.5 3.6c-.9.5-1.8.8-2.8.9 1-.7 1.8-1.9 2.2-3.3-.9.7-2 1.2-3.1 1.4-.9-1.1-2.2-1.9-3.6-1.9-2.7 0-4.9 2.6-4.9 5.9 0 .5 0 .9.1 1.3-4.2-.1-7.8-2.4-10.2-6-.4.9-.7 1.9-.7 3 0 2 .9 3.8 2.2 4.9-.8-.1-1.5-.3-2.2-.8v.1c0 2.9 1.7 5.2 3.9 5.8-.4.1-.8.2-1.2.2-.3 0-.6 0-.9-.1.6 2.3 2.4 4 4.6 4.1-1.7 1.6-3.8 2.5-6.1 2.5-.4 0-.8 0-1.2-.1 2.2 1.7 4.7 2.6 7.5 2.6 9 0 14-9 14-16.7v-.8c.9-.8 1.7-1.8 2.4-3"/></symbol></svg>